<svg xmlns="http://www.w3.org/2000/svg" xmlns:xlink="http://www.w3.org/1999/xlink" width="500" zoomAndPan="magnify" viewBox="0 0 375 374.999991" height="500" preserveAspectRatio="xMidYMid meet" version="1.0"><defs><g/><clipPath id="42aafcdca1"><path d="M 138 168 L 236 168 L 236 246.261719 L 138 246.261719 Z M 138 168 " clip-rule="nonzero"/></clipPath><clipPath id="2b43a5dfe2"><path d="M 150 113.511719 L 185 113.511719 L 185 157 L 150 157 Z M 150 113.511719 " clip-rule="nonzero"/></clipPath><clipPath id="50d37a4ab1"><path d="M 190 113.511719 L 224 113.511719 L 224 157 L 190 157 Z M 190 113.511719 " clip-rule="nonzero"/></clipPath></defs><g fill="#4b548b" fill-opacity="1"><g transform="translate(162.936697, 305.82971)"><g><path d="M -3.140625 -0.234375 L -9.328125 21.453125 C -9.378906 21.617188 -9.484375 21.742188 -9.640625 21.828125 C -9.796875 21.910156 -9.96875 21.925781 -10.15625 21.875 L -13.15625 21.015625 C -13.332031 20.960938 -13.460938 20.859375 -13.546875 20.703125 C -13.628906 20.554688 -13.644531 20.398438 -13.59375 20.234375 L -8.359375 1.859375 L -16.703125 -0.53125 C -16.878906 -0.582031 -17.007812 -0.679688 -17.09375 -0.828125 C -17.1875 -0.972656 -17.207031 -1.132812 -17.15625 -1.3125 L -16.390625 -4.015625 C -16.347656 -4.160156 -16.242188 -4.28125 -16.078125 -4.375 C -15.921875 -4.476562 -15.753906 -4.503906 -15.578125 -4.453125 L -3.609375 -1.03125 C -3.421875 -0.976562 -3.285156 -0.867188 -3.203125 -0.703125 C -3.117188 -0.535156 -3.097656 -0.378906 -3.140625 -0.234375 Z M -3.140625 -0.234375 "/></g></g></g><g fill="#4b548b" fill-opacity="1"><g transform="translate(130.881203, 294.699322)"><g><path d="M -7.859375 9 C -8.828125 10.40625 -9.988281 11.539062 -11.34375 12.40625 C -12.707031 13.28125 -14.171875 13.859375 -15.734375 14.140625 C -17.296875 14.429688 -18.863281 14.421875 -20.4375 14.109375 C -22.007812 13.804688 -23.503906 13.171875 -24.921875 12.203125 C -26.316406 11.242188 -27.445312 10.078125 -28.3125 8.703125 C -29.175781 7.335938 -29.75 5.875 -30.03125 4.3125 C -30.3125 2.757812 -30.289062 1.191406 -29.96875 -0.390625 C -29.65625 -1.972656 -29.015625 -3.46875 -28.046875 -4.875 C -27.085938 -6.269531 -25.925781 -7.394531 -24.5625 -8.25 C -23.207031 -9.101562 -21.753906 -9.675781 -20.203125 -9.96875 C -18.648438 -10.269531 -17.082031 -10.253906 -15.5 -9.921875 C -13.925781 -9.597656 -12.441406 -8.957031 -11.046875 -8 C -9.628906 -7.03125 -8.488281 -5.867188 -7.625 -4.515625 C -6.769531 -3.171875 -6.195312 -1.710938 -5.90625 -0.140625 C -5.613281 1.421875 -5.625 2.984375 -5.9375 4.546875 C -6.257812 6.117188 -6.898438 7.601562 -7.859375 9 Z M -11.515625 6.484375 C -10.710938 5.304688 -10.269531 4.03125 -10.1875 2.65625 C -10.101562 1.289062 -10.34375 -0.015625 -10.90625 -1.265625 C -11.476562 -2.515625 -12.359375 -3.546875 -13.546875 -4.359375 C -14.722656 -5.160156 -16 -5.609375 -17.375 -5.703125 C -18.757812 -5.796875 -20.078125 -5.554688 -21.328125 -4.984375 C -22.578125 -4.421875 -23.601562 -3.550781 -24.40625 -2.375 C -25.226562 -1.1875 -25.679688 0.0976562 -25.765625 1.484375 C -25.859375 2.867188 -25.617188 4.191406 -25.046875 5.453125 C -24.472656 6.722656 -23.597656 7.757812 -22.421875 8.5625 C -21.234375 9.375 -19.953125 9.816406 -18.578125 9.890625 C -17.203125 9.972656 -15.882812 9.722656 -14.625 9.140625 C -13.375 8.554688 -12.335938 7.671875 -11.515625 6.484375 Z M -11.515625 6.484375 "/></g></g></g><g fill="#4b548b" fill-opacity="1"><g transform="translate(96.862129, 267.386609)"><g><path d="M -6.21875 -8.5625 L -18.65625 13.359375 C -18.78125 13.566406 -18.953125 13.675781 -19.171875 13.6875 C -19.390625 13.695312 -19.570312 13.601562 -19.71875 13.40625 L -21.75 10.59375 C -21.84375 10.457031 -21.882812 10.320312 -21.875 10.1875 C -21.863281 10.0625 -21.828125 9.96875 -21.765625 9.90625 L -13.71875 -3.953125 L -13.859375 -4.15625 L -29.546875 -0.90625 C -29.648438 -0.894531 -29.757812 -0.898438 -29.875 -0.921875 C -30 -0.953125 -30.109375 -1.03125 -30.203125 -1.15625 L -32.234375 -3.984375 C -32.378906 -4.179688 -32.410156 -4.382812 -32.328125 -4.59375 C -32.253906 -4.800781 -32.097656 -4.925781 -31.859375 -4.96875 L -7.09375 -9.78125 C -6.8125 -9.832031 -6.59375 -9.75 -6.4375 -9.53125 L -6.234375 -9.25 C -6.085938 -9.050781 -6.082031 -8.820312 -6.21875 -8.5625 Z M -6.21875 -8.5625 "/></g></g></g><g fill="#4b548b" fill-opacity="1"><g transform="translate(76.300002, 233.944561)"><g><path d="M -1.546875 -2.765625 L -23.046875 4.046875 C -23.210938 4.109375 -23.375 4.097656 -23.53125 4.015625 C -23.6875 3.929688 -23.796875 3.800781 -23.859375 3.625 L -28.046875 -9.578125 C -28.097656 -9.753906 -28.082031 -9.914062 -28 -10.0625 C -27.914062 -10.21875 -27.789062 -10.328125 -27.625 -10.390625 L -24.953125 -11.234375 C -24.804688 -11.273438 -24.648438 -11.257812 -24.484375 -11.1875 C -24.316406 -11.113281 -24.207031 -10.988281 -24.15625 -10.8125 L -21.109375 -1.203125 L -15.78125 -2.890625 L -18.3125 -10.90625 C -18.363281 -11.082031 -18.347656 -11.242188 -18.265625 -11.390625 C -18.191406 -11.546875 -18.070312 -11.65625 -17.90625 -11.71875 L -15.203125 -12.5625 C -15.035156 -12.613281 -14.867188 -12.601562 -14.703125 -12.53125 C -14.546875 -12.457031 -14.441406 -12.332031 -14.390625 -12.15625 L -11.859375 -4.140625 L -6.171875 -5.9375 L -9.21875 -15.546875 C -9.269531 -15.722656 -9.253906 -15.882812 -9.171875 -16.03125 C -9.097656 -16.1875 -8.972656 -16.296875 -8.796875 -16.359375 L -6.125 -17.203125 C -5.976562 -17.242188 -5.820312 -17.226562 -5.65625 -17.15625 C -5.488281 -17.082031 -5.378906 -16.957031 -5.328125 -16.78125 L -1.140625 -3.578125 C -1.078125 -3.398438 -1.09375 -3.226562 -1.1875 -3.0625 C -1.28125 -2.90625 -1.398438 -2.804688 -1.546875 -2.765625 Z M -1.546875 -2.765625 "/></g></g></g><g fill="#4b548b" fill-opacity="1"><g transform="translate(67.99326, 197.615027)"><g><path d="M -14.5 -1.375 L -14.9375 -0.875 C -15.050781 -0.757812 -15.1875 -0.707031 -15.34375 -0.71875 C -15.507812 -0.726562 -15.640625 -0.789062 -15.734375 -0.90625 C -15.828125 -1.007812 -16.0625 -1.238281 -16.4375 -1.59375 C -16.8125 -1.957031 -17.296875 -2.289062 -17.890625 -2.59375 C -18.492188 -2.90625 -19.191406 -3.039062 -19.984375 -3 C -19.984375 -2.976562 -19.945312 -2.875 -19.875 -2.6875 C -19.8125 -2.5 -19.773438 -2.269531 -19.765625 -2 C -19.734375 -1.363281 -19.921875 -0.8125 -20.328125 -0.34375 C -20.734375 0.113281 -21.253906 0.359375 -21.890625 0.390625 C -22.523438 0.429688 -23.078125 0.238281 -23.546875 -0.1875 C -24.015625 -0.625 -24.265625 -1.191406 -24.296875 -1.890625 C -24.316406 -2.304688 -24.234375 -2.738281 -24.046875 -3.1875 C -23.859375 -3.644531 -23.5 -4.03125 -22.96875 -4.34375 C -22.445312 -4.664062 -21.722656 -4.851562 -20.796875 -4.90625 C -19.679688 -4.957031 -18.703125 -4.8125 -17.859375 -4.46875 C -17.023438 -4.132812 -16.328125 -3.738281 -15.765625 -3.28125 C -15.210938 -2.820312 -14.789062 -2.445312 -14.5 -2.15625 C -14.28125 -1.875 -14.28125 -1.613281 -14.5 -1.375 Z M -14.5 -1.375 "/></g></g></g><g fill="#4b548b" fill-opacity="1"><g transform="translate(68.206867, 173.514504)"><g><path d="M -1.875 -2.359375 C -2.0625 -2.234375 -2.222656 -2.15625 -2.359375 -2.125 C -2.492188 -2.09375 -2.6875 -2.179688 -2.9375 -2.390625 L -4.75 -4 C -4.976562 -4.1875 -5.070312 -4.394531 -5.03125 -4.625 C -5 -4.863281 -4.910156 -5.050781 -4.765625 -5.1875 C -4.734375 -5.238281 -4.578125 -5.398438 -4.296875 -5.671875 C -4.015625 -5.941406 -3.691406 -6.296875 -3.328125 -6.734375 C -2.960938 -7.179688 -2.617188 -7.671875 -2.296875 -8.203125 C -1.984375 -8.734375 -1.769531 -9.269531 -1.65625 -9.8125 C -1.488281 -10.675781 -1.597656 -11.445312 -1.984375 -12.125 C -2.367188 -12.8125 -2.914062 -13.222656 -3.625 -13.359375 C -4.46875 -13.535156 -5.28125 -13.328125 -6.0625 -12.734375 C -6.84375 -12.148438 -7.648438 -11.21875 -8.484375 -9.9375 C -9.109375 -8.976562 -9.828125 -8.082031 -10.640625 -7.25 C -11.460938 -6.414062 -12.390625 -5.785156 -13.421875 -5.359375 C -14.460938 -4.929688 -15.644531 -4.847656 -16.96875 -5.109375 C -17.96875 -5.304688 -18.90625 -5.757812 -19.78125 -6.46875 C -20.65625 -7.1875 -21.304688 -8.171875 -21.734375 -9.421875 C -22.160156 -10.671875 -22.195312 -12.171875 -21.84375 -13.921875 C -21.613281 -15.054688 -21.253906 -16.050781 -20.765625 -16.90625 C -20.285156 -17.769531 -19.804688 -18.476562 -19.328125 -19.03125 C -18.847656 -19.582031 -18.492188 -19.953125 -18.265625 -20.140625 C -18.148438 -20.296875 -17.96875 -20.363281 -17.71875 -20.34375 C -17.476562 -20.332031 -17.28125 -20.257812 -17.125 -20.125 L -15.484375 -18.46875 C -15.304688 -18.289062 -15.191406 -18.078125 -15.140625 -17.828125 C -15.085938 -17.585938 -15.148438 -17.382812 -15.328125 -17.21875 C -15.378906 -17.164062 -15.53125 -17 -15.78125 -16.71875 C -16.03125 -16.445312 -16.316406 -16.109375 -16.640625 -15.703125 C -16.972656 -15.296875 -17.273438 -14.851562 -17.546875 -14.375 C -17.816406 -13.894531 -18 -13.421875 -18.09375 -12.953125 C -18.28125 -11.992188 -18.164062 -11.210938 -17.75 -10.609375 C -17.34375 -10.003906 -16.875 -9.644531 -16.34375 -9.53125 C -15.570312 -9.375 -14.832031 -9.554688 -14.125 -10.078125 C -13.414062 -10.597656 -12.644531 -11.476562 -11.8125 -12.71875 C -11.3125 -13.457031 -10.765625 -14.195312 -10.171875 -14.9375 C -9.585938 -15.675781 -8.929688 -16.332031 -8.203125 -16.90625 C -7.484375 -17.476562 -6.679688 -17.882812 -5.796875 -18.125 C -4.910156 -18.375 -3.9375 -18.390625 -2.875 -18.171875 C -1.738281 -17.941406 -0.726562 -17.414062 0.15625 -16.59375 C 1.050781 -15.769531 1.695312 -14.722656 2.09375 -13.453125 C 2.488281 -12.179688 2.523438 -10.753906 2.203125 -9.171875 C 1.921875 -7.773438 1.503906 -6.601562 0.953125 -5.65625 C 0.398438 -4.71875 -0.144531 -3.976562 -0.6875 -3.4375 C -1.238281 -2.894531 -1.632812 -2.535156 -1.875 -2.359375 Z M -1.875 -2.359375 "/></g></g></g><g fill="#4b548b" fill-opacity="1"><g transform="translate(78.071173, 139.165643)"><g/></g></g><g fill="#4b548b" fill-opacity="1"><g transform="translate(90.35987, 117.444388)"><g><path d="M 1.515625 -2.765625 L -15.734375 -17.3125 C -15.867188 -17.425781 -15.941406 -17.570312 -15.953125 -17.75 C -15.972656 -17.925781 -15.921875 -18.082031 -15.796875 -18.21875 L -13.78125 -20.609375 C -13.664062 -20.753906 -13.519531 -20.835938 -13.34375 -20.859375 C -13.164062 -20.878906 -13.007812 -20.832031 -12.875 -20.71875 L 1.734375 -8.390625 L 7.3125 -15.015625 C 7.4375 -15.160156 7.582031 -15.238281 7.75 -15.25 C 7.925781 -15.269531 8.085938 -15.222656 8.234375 -15.109375 L 10.375 -13.296875 C 10.488281 -13.203125 10.554688 -13.0625 10.578125 -12.875 C 10.609375 -12.695312 10.5625 -12.535156 10.4375 -12.390625 L 2.421875 -2.859375 C 2.296875 -2.722656 2.140625 -2.648438 1.953125 -2.640625 C 1.773438 -2.628906 1.628906 -2.671875 1.515625 -2.765625 Z M 1.515625 -2.765625 "/></g></g></g><g fill="#4b548b" fill-opacity="1"><g transform="translate(114.062334, 92.903118)"><g><path d="M 2.25 -2.21875 L -10 -21.15625 C -10.09375 -21.300781 -10.117188 -21.460938 -10.078125 -21.640625 C -10.046875 -21.816406 -9.945312 -21.953125 -9.78125 -22.046875 L 1.84375 -29.578125 C 2 -29.671875 2.160156 -29.695312 2.328125 -29.65625 C 2.503906 -29.613281 2.640625 -29.519531 2.734375 -29.375 L 4.25 -27.03125 C 4.34375 -26.894531 4.375 -26.734375 4.34375 -26.546875 C 4.3125 -26.367188 4.21875 -26.234375 4.0625 -26.140625 L -4.390625 -20.671875 L -1.359375 -15.984375 L 5.703125 -20.546875 C 5.847656 -20.640625 6.003906 -20.664062 6.171875 -20.625 C 6.347656 -20.59375 6.484375 -20.5 6.578125 -20.34375 L 8.125 -17.96875 C 8.21875 -17.820312 8.242188 -17.660156 8.203125 -17.484375 C 8.171875 -17.316406 8.082031 -17.1875 7.9375 -17.09375 L 0.875 -12.53125 L 4.109375 -7.515625 L 12.5625 -12.984375 C 12.71875 -13.078125 12.878906 -13.109375 13.046875 -13.078125 C 13.222656 -13.046875 13.363281 -12.953125 13.46875 -12.796875 L 14.984375 -10.4375 C 15.066406 -10.3125 15.09375 -10.15625 15.0625 -9.96875 C 15.03125 -9.789062 14.9375 -9.65625 14.78125 -9.5625 L 3.15625 -2.03125 C 2.988281 -1.9375 2.816406 -1.910156 2.640625 -1.953125 C 2.460938 -2.003906 2.332031 -2.09375 2.25 -2.21875 Z M 2.25 -2.21875 "/></g></g></g><g fill="#4b548b" fill-opacity="1"><g transform="translate(146.101295, 75.001065)"><g><path d="M -1.59375 -11.84375 C -2.019531 -13.5 -2.109375 -15.125 -1.859375 -16.71875 C -1.617188 -18.3125 -1.09375 -19.789062 -0.28125 -21.15625 C 0.519531 -22.519531 1.550781 -23.695312 2.8125 -24.6875 C 4.082031 -25.675781 5.546875 -26.378906 7.203125 -26.796875 C 8.691406 -27.179688 10.191406 -27.273438 11.703125 -27.078125 C 13.222656 -26.890625 14.664062 -26.457031 16.03125 -25.78125 C 16.195312 -25.675781 16.304688 -25.539062 16.359375 -25.375 C 16.421875 -25.207031 16.398438 -25.035156 16.296875 -24.859375 L 14.796875 -22.203125 C 14.597656 -21.867188 14.316406 -21.796875 13.953125 -21.984375 C 12.179688 -22.878906 10.359375 -23.085938 8.484375 -22.609375 C 7.128906 -22.265625 5.976562 -21.597656 5.03125 -20.609375 C 4.082031 -19.628906 3.425781 -18.472656 3.0625 -17.140625 C 2.707031 -15.816406 2.707031 -14.460938 3.0625 -13.078125 C 3.40625 -11.710938 4.050781 -10.539062 5 -9.5625 C 5.957031 -8.59375 7.085938 -7.90625 8.390625 -7.5 C 9.691406 -7.101562 11.03125 -7.082031 12.40625 -7.4375 C 13.320312 -7.675781 14.09375 -7.984375 14.71875 -8.359375 C 15.34375 -8.734375 15.804688 -9.03125 16.109375 -9.25 L 15.390625 -12.046875 L 12.765625 -11.375 C 12.335938 -11.269531 12.070312 -11.421875 11.96875 -11.828125 L 11.3125 -14.4375 C 11.207031 -14.84375 11.367188 -15.097656 11.796875 -15.203125 L 18.125 -16.828125 C 18.300781 -16.867188 18.453125 -16.84375 18.578125 -16.75 C 18.710938 -16.65625 18.804688 -16.523438 18.859375 -16.359375 L 21.015625 -7.90625 C 21.046875 -7.78125 21.050781 -7.664062 21.03125 -7.5625 C 21.007812 -7.457031 20.96875 -7.375 20.90625 -7.3125 C 20.90625 -7.3125 20.734375 -7.148438 20.390625 -6.828125 C 20.054688 -6.515625 19.554688 -6.125 18.890625 -5.65625 C 18.222656 -5.195312 17.414062 -4.726562 16.46875 -4.25 C 15.519531 -3.769531 14.457031 -3.378906 13.28125 -3.078125 C 11.625 -2.660156 10.003906 -2.566406 8.421875 -2.796875 C 6.835938 -3.035156 5.363281 -3.554688 4 -4.359375 C 2.644531 -5.160156 1.476562 -6.195312 0.5 -7.46875 C -0.476562 -8.738281 -1.175781 -10.195312 -1.59375 -11.84375 Z M -1.59375 -11.84375 "/></g></g></g><g fill="#4b548b" fill-opacity="1"><g transform="translate(186.224557, 67.726948)"><g><path d="M 0.640625 0.046875 C 0.390625 0.0234375 0.210938 -0.078125 0.109375 -0.265625 C 0.015625 -0.453125 0.0234375 -0.660156 0.140625 -0.890625 L 12.59375 -22.84375 C 12.75 -23.082031 12.953125 -23.191406 13.203125 -23.171875 L 13.53125 -23.140625 C 13.707031 -23.117188 13.832031 -23.070312 13.90625 -23 C 13.976562 -22.925781 14.035156 -22.832031 14.078125 -22.71875 L 22.640625 0.984375 C 22.734375 1.210938 22.707031 1.410156 22.5625 1.578125 C 22.425781 1.753906 22.234375 1.835938 21.984375 1.828125 L 19.03125 1.578125 C 18.601562 1.535156 18.296875 1.28125 18.109375 0.8125 L 16.734375 -2.984375 L 6.609375 -3.828125 L 4.640625 -0.3125 C 4.546875 -0.144531 4.414062 0 4.25 0.125 C 4.082031 0.257812 3.863281 0.316406 3.59375 0.296875 Z M 8.5625 -7.453125 L 15.390625 -6.890625 L 12.625 -14.640625 L 12.53125 -14.65625 Z M 8.5625 -7.453125 "/></g></g></g><g fill="#4b548b" fill-opacity="1"><g transform="translate(224.943649, 73.625426)"><g><path d="M 6 -10.328125 C 6.6875 -11.898438 7.613281 -13.238281 8.78125 -14.34375 C 9.957031 -15.445312 11.285156 -16.289062 12.765625 -16.875 C 14.253906 -17.457031 15.804688 -17.738281 17.421875 -17.71875 C 19.046875 -17.707031 20.640625 -17.359375 22.203125 -16.671875 C 23.773438 -15.984375 25.050781 -15.132812 26.03125 -14.125 C 27.019531 -13.113281 27.832031 -11.894531 28.46875 -10.46875 C 28.550781 -10.289062 28.554688 -10.117188 28.484375 -9.953125 C 28.421875 -9.785156 28.296875 -9.664062 28.109375 -9.59375 L 25.359375 -8.453125 C 24.992188 -8.296875 24.734375 -8.410156 24.578125 -8.796875 C 24.179688 -9.660156 23.632812 -10.4375 22.9375 -11.125 C 22.25 -11.820312 21.460938 -12.359375 20.578125 -12.734375 C 19.253906 -13.316406 17.921875 -13.503906 16.578125 -13.296875 C 15.234375 -13.085938 14.015625 -12.5625 12.921875 -11.71875 C 11.835938 -10.882812 11.007812 -9.816406 10.4375 -8.515625 C 9.875 -7.222656 9.660156 -5.890625 9.796875 -4.515625 C 9.929688 -3.140625 10.378906 -1.894531 11.140625 -0.78125 C 11.910156 0.320312 12.957031 1.160156 14.28125 1.734375 C 15.226562 2.148438 16.171875 2.367188 17.109375 2.390625 C 18.046875 2.410156 18.953125 2.296875 19.828125 2.046875 C 20.003906 1.992188 20.171875 2.003906 20.328125 2.078125 C 20.484375 2.148438 20.578125 2.253906 20.609375 2.390625 L 21.65625 5.25 C 21.75 5.394531 21.742188 5.550781 21.640625 5.71875 C 21.546875 5.894531 21.421875 6.007812 21.265625 6.0625 C 19.765625 6.625 18.253906 6.867188 16.734375 6.796875 C 15.222656 6.734375 13.769531 6.394531 12.375 5.78125 C 10.8125 5.09375 9.472656 4.164062 8.359375 3 C 7.242188 1.832031 6.394531 0.507812 5.8125 -0.96875 C 5.238281 -2.445312 4.957031 -3.988281 4.96875 -5.59375 C 4.976562 -7.195312 5.320312 -8.773438 6 -10.328125 Z M 6 -10.328125 "/></g></g></g><g fill="#4b548b" fill-opacity="1"><g transform="translate(260.266127, 92.277695)"><g><path d="M 6.171875 4.671875 L 13.40625 -3.375 L 15.21875 -17.03125 C 15.269531 -17.300781 15.40625 -17.472656 15.625 -17.546875 C 15.851562 -17.628906 16.070312 -17.582031 16.28125 -17.40625 L 18.875 -15.078125 C 18.96875 -14.984375 19.023438 -14.878906 19.046875 -14.765625 C 19.078125 -14.660156 19.085938 -14.570312 19.078125 -14.5 L 17.90625 -5.03125 L 27.203125 -7.21875 C 27.273438 -7.226562 27.363281 -7.226562 27.46875 -7.21875 C 27.582031 -7.207031 27.691406 -7.160156 27.796875 -7.078125 L 30.390625 -4.734375 C 30.597656 -4.554688 30.671875 -4.347656 30.609375 -4.109375 C 30.554688 -3.878906 30.398438 -3.722656 30.140625 -3.640625 L 16.734375 -0.453125 L 9.46875 7.640625 C 9.363281 7.765625 9.21875 7.832031 9.03125 7.84375 C 8.851562 7.863281 8.695312 7.804688 8.5625 7.671875 L 6.234375 5.59375 C 6.097656 5.46875 6.023438 5.3125 6.015625 5.125 C 6.015625 4.945312 6.066406 4.796875 6.171875 4.671875 Z M 6.171875 4.671875 "/></g></g></g><g fill="#4b548b" fill-opacity="1"><g transform="translate(285.751009, 119.199692)"><g/></g></g><g fill="#4b548b" fill-opacity="1"><g transform="translate(298.24046, 140.611078)"><g><path d="M 1.5625 2.734375 L 23.03125 -4.171875 C 23.195312 -4.222656 23.359375 -4.207031 23.515625 -4.125 C 23.671875 -4.039062 23.78125 -3.910156 23.84375 -3.734375 L 26.828125 5.53125 C 27.242188 6.832031 27.3125 8.113281 27.03125 9.375 C 26.75 10.644531 26.1875 11.769531 25.34375 12.75 C 24.5 13.726562 23.425781 14.425781 22.125 14.84375 C 20.625 15.320312 19.15625 15.296875 17.71875 14.765625 C 16.28125 14.242188 15.050781 13.367188 14.03125 12.140625 L 7.234375 19.25 C 7.046875 19.414062 6.832031 19.484375 6.59375 19.453125 C 6.363281 19.421875 6.203125 19.269531 6.109375 19 L 5.015625 15.59375 C 4.972656 15.4375 4.96875 15.3125 5 15.21875 C 5.039062 15.125 5.09375 15.039062 5.15625 14.96875 L 12.34375 7.890625 L 11.1875 4.3125 L 2.921875 6.96875 C 2.773438 7.019531 2.613281 7.003906 2.4375 6.921875 C 2.269531 6.847656 2.160156 6.722656 2.109375 6.546875 L 1.15625 3.5625 C 1.09375 3.382812 1.109375 3.210938 1.203125 3.046875 C 1.296875 2.890625 1.414062 2.785156 1.5625 2.734375 Z M 14.65625 3.234375 L 16.359375 8.515625 C 16.640625 9.367188 17.207031 10.007812 18.0625 10.4375 C 18.914062 10.863281 19.789062 10.9375 20.6875 10.65625 C 21.5625 10.375 22.203125 9.8125 22.609375 8.96875 C 23.023438 8.132812 23.09375 7.289062 22.8125 6.4375 L 21.109375 1.15625 Z M 14.65625 3.234375 "/></g></g></g><g fill="#4b548b" fill-opacity="1"><g transform="translate(307.548784, 178.846404)"><g><path d="M 0.625 3.09375 L 23.171875 3.234375 C 23.347656 3.234375 23.5 3.296875 23.625 3.421875 C 23.75 3.546875 23.8125 3.703125 23.8125 3.890625 L 23.71875 17.75 C 23.71875 17.925781 23.65625 18.078125 23.53125 18.203125 C 23.40625 18.328125 23.253906 18.390625 23.078125 18.390625 L 20.28125 18.375 C 20.125 18.363281 19.976562 18.296875 19.84375 18.171875 C 19.707031 18.046875 19.640625 17.894531 19.640625 17.71875 L 19.703125 7.640625 L 14.109375 7.609375 L 14.0625 16.015625 C 14.0625 16.191406 14 16.34375 13.875 16.46875 C 13.75 16.59375 13.597656 16.65625 13.421875 16.65625 L 10.59375 16.640625 C 10.414062 16.640625 10.265625 16.578125 10.140625 16.453125 C 10.015625 16.328125 9.953125 16.175781 9.953125 16 L 10 7.59375 L 4.03125 7.5625 L 3.96875 17.640625 C 3.96875 17.816406 3.90625 17.960938 3.78125 18.078125 C 3.664062 18.203125 3.515625 18.265625 3.328125 18.265625 L 0.53125 18.25 C 0.375 18.25 0.226562 18.1875 0.09375 18.0625 C -0.0390625 17.9375 -0.109375 17.785156 -0.109375 17.609375 L -0.015625 3.75 C -0.015625 3.5625 0.0507812 3.40625 0.1875 3.28125 C 0.320312 3.15625 0.46875 3.09375 0.625 3.09375 Z M 0.625 3.09375 "/></g></g></g><g fill="#4b548b" fill-opacity="1"><g transform="translate(304.673165, 215.601979)"><g><path d="M 1.625 2.546875 C 1.8125 2.441406 1.972656 2.378906 2.109375 2.359375 C 2.242188 2.347656 2.425781 2.460938 2.65625 2.703125 L 4.296875 4.484375 C 4.492188 4.691406 4.554688 4.910156 4.484375 5.140625 C 4.421875 5.367188 4.316406 5.546875 4.171875 5.671875 C 4.128906 5.703125 3.953125 5.84375 3.640625 6.09375 C 3.335938 6.34375 2.976562 6.664062 2.5625 7.0625 C 2.15625 7.457031 1.765625 7.90625 1.390625 8.40625 C 1.023438 8.90625 0.757812 9.414062 0.59375 9.9375 C 0.332031 10.769531 0.351562 11.546875 0.65625 12.265625 C 0.96875 12.992188 1.46875 13.46875 2.15625 13.6875 C 2.976562 13.945312 3.8125 13.828125 4.65625 13.328125 C 5.5 12.828125 6.398438 11.984375 7.359375 10.796875 C 8.085938 9.910156 8.90625 9.09375 9.8125 8.34375 C 10.71875 7.601562 11.707031 7.078125 12.78125 6.765625 C 13.851562 6.453125 15.03125 6.5 16.3125 6.90625 C 17.289062 7.21875 18.175781 7.773438 18.96875 8.578125 C 19.757812 9.378906 20.300781 10.421875 20.59375 11.703125 C 20.894531 12.984375 20.773438 14.476562 20.234375 16.1875 C 19.878906 17.289062 19.410156 18.242188 18.828125 19.046875 C 18.242188 19.859375 17.6875 20.515625 17.15625 21.015625 C 16.625 21.515625 16.234375 21.835938 15.984375 21.984375 C 15.847656 22.140625 15.660156 22.195312 15.421875 22.15625 C 15.191406 22.113281 15.003906 22.015625 14.859375 21.859375 L 13.40625 20.03125 C 13.25 19.84375 13.15625 19.625 13.125 19.375 C 13.09375 19.125 13.175781 18.921875 13.375 18.765625 C 13.4375 18.710938 13.609375 18.566406 13.890625 18.328125 C 14.171875 18.085938 14.492188 17.78125 14.859375 17.40625 C 15.222656 17.039062 15.566406 16.632812 15.890625 16.1875 C 16.210938 15.738281 16.445312 15.289062 16.59375 14.84375 C 16.882812 13.90625 16.859375 13.113281 16.515625 12.46875 C 16.171875 11.820312 15.738281 11.414062 15.21875 11.25 C 14.46875 11.007812 13.710938 11.109375 12.953125 11.546875 C 12.191406 11.984375 11.332031 12.78125 10.375 13.9375 C 9.789062 14.601562 9.164062 15.269531 8.5 15.9375 C 7.84375 16.613281 7.125 17.195312 6.34375 17.6875 C 5.5625 18.175781 4.710938 18.492188 3.796875 18.640625 C 2.890625 18.785156 1.921875 18.695312 0.890625 18.375 C -0.210938 18.019531 -1.160156 17.382812 -1.953125 16.46875 C -2.753906 15.550781 -3.28125 14.441406 -3.53125 13.140625 C -3.78125 11.835938 -3.660156 10.414062 -3.171875 8.875 C -2.742188 7.507812 -2.203125 6.390625 -1.546875 5.515625 C -0.898438 4.640625 -0.273438 3.960938 0.328125 3.484375 C 0.929688 3.015625 1.363281 2.703125 1.625 2.546875 Z M 1.625 2.546875 "/></g></g></g><g fill="#4b548b" fill-opacity="1"><g transform="translate(291.900299, 248.429488)"><g><path d="M 8.859375 8.015625 C 10.253906 9.003906 11.367188 10.1875 12.203125 11.5625 C 13.035156 12.945312 13.582031 14.425781 13.84375 16 C 14.113281 17.570312 14.070312 19.144531 13.71875 20.71875 C 13.375 22.300781 12.707031 23.785156 11.71875 25.171875 C 10.71875 26.566406 9.617188 27.640625 8.421875 28.390625 C 7.234375 29.140625 5.875 29.6875 4.34375 30.03125 C 4.144531 30.070312 3.972656 30.039062 3.828125 29.9375 C 3.679688 29.832031 3.59375 29.679688 3.5625 29.484375 L 3.015625 26.5625 C 2.929688 26.164062 3.097656 25.9375 3.515625 25.875 C 4.441406 25.664062 5.316406 25.289062 6.140625 24.75 C 6.960938 24.21875 7.648438 23.5625 8.203125 22.78125 C 9.046875 21.601562 9.503906 20.332031 9.578125 18.96875 C 9.648438 17.613281 9.390625 16.316406 8.796875 15.078125 C 8.203125 13.847656 7.328125 12.816406 6.171875 11.984375 C 5.023438 11.171875 3.765625 10.679688 2.390625 10.515625 C 1.023438 10.359375 -0.273438 10.539062 -1.515625 11.0625 C -2.765625 11.582031 -3.8125 12.429688 -4.65625 13.609375 C -5.257812 14.453125 -5.664062 15.332031 -5.875 16.25 C -6.09375 17.164062 -6.171875 18.078125 -6.109375 18.984375 C -6.097656 19.160156 -6.140625 19.316406 -6.234375 19.453125 C -6.335938 19.597656 -6.460938 19.671875 -6.609375 19.671875 L -9.609375 20.109375 C -9.773438 20.160156 -9.929688 20.117188 -10.078125 19.984375 C -10.222656 19.847656 -10.304688 19.707031 -10.328125 19.5625 C -10.554688 17.96875 -10.484375 16.4375 -10.109375 14.96875 C -9.734375 13.5 -9.101562 12.144531 -8.21875 10.90625 C -7.226562 9.519531 -6.046875 8.40625 -4.671875 7.5625 C -3.296875 6.71875 -1.828125 6.164062 -0.265625 5.90625 C 1.296875 5.644531 2.863281 5.679688 4.4375 6.015625 C 6.007812 6.359375 7.484375 7.023438 8.859375 8.015625 Z M 8.859375 8.015625 "/></g></g></g><g fill="#4b548b" fill-opacity="1"><g transform="translate(266.59786, 279.181972)"><g><path d="M 2.9375 8.953125 L 11.09375 20.546875 C 11.195312 20.691406 11.226562 20.851562 11.1875 21.03125 C 11.144531 21.21875 11.0625 21.351562 10.9375 21.4375 L 8.28125 23.3125 C 8.144531 23.40625 7.988281 23.4375 7.8125 23.40625 C 7.632812 23.382812 7.492188 23.300781 7.390625 23.15625 L -0.625 11.765625 C -1.175781 10.984375 -1.84375 10.390625 -2.625 9.984375 C -3.414062 9.585938 -4.25 9.410156 -5.125 9.453125 C -6.007812 9.503906 -6.851562 9.804688 -7.65625 10.359375 C -8.46875 10.929688 -9.039062 11.617188 -9.375 12.421875 C -9.71875 13.222656 -9.835938 14.0625 -9.734375 14.9375 C -9.628906 15.820312 -9.300781 16.65625 -8.75 17.4375 L -0.71875 28.859375 C -0.613281 29.003906 -0.570312 29.160156 -0.59375 29.328125 C -0.625 29.503906 -0.71875 29.644531 -0.875 29.75 L -3.515625 31.609375 C -3.660156 31.710938 -3.820312 31.75 -4 31.71875 C -4.175781 31.695312 -4.316406 31.613281 -4.421875 31.46875 L -12.578125 19.875 C -13.566406 18.46875 -14.125 16.941406 -14.25 15.296875 C -14.382812 13.648438 -14.109375 12.070312 -13.421875 10.5625 C -12.734375 9.050781 -11.660156 7.78125 -10.203125 6.75 C -8.742188 5.726562 -7.1875 5.148438 -5.53125 5.015625 C -3.882812 4.890625 -2.304688 5.160156 -0.796875 5.828125 C 0.703125 6.503906 1.945312 7.546875 2.9375 8.953125 Z M 2.9375 8.953125 "/></g></g></g><g fill="#4b548b" fill-opacity="1"><g transform="translate(231.343223, 300.251727)"><g><path d="M -2.78125 1.484375 L 3.640625 23.09375 C 3.691406 23.269531 3.671875 23.4375 3.578125 23.59375 C 3.492188 23.75 3.363281 23.851562 3.1875 23.90625 L -10.09375 27.859375 C -10.269531 27.910156 -10.429688 27.894531 -10.578125 27.8125 C -10.734375 27.726562 -10.835938 27.597656 -10.890625 27.421875 L -11.6875 24.75 C -11.726562 24.601562 -11.707031 24.445312 -11.625 24.28125 C -11.550781 24.113281 -11.425781 24.003906 -11.25 23.953125 L -1.59375 21.078125 L -3.1875 15.703125 L -11.25 18.109375 C -11.414062 18.148438 -11.578125 18.128906 -11.734375 18.046875 C -11.890625 17.960938 -11.992188 17.835938 -12.046875 17.671875 L -12.84375 14.96875 C -12.894531 14.789062 -12.878906 14.625 -12.796875 14.46875 C -12.710938 14.3125 -12.585938 14.210938 -12.421875 14.171875 L -4.359375 11.765625 L -6.0625 6.046875 L -15.71875 8.921875 C -15.894531 8.972656 -16.054688 8.957031 -16.203125 8.875 C -16.359375 8.800781 -16.460938 8.675781 -16.515625 8.5 L -17.3125 5.8125 C -17.363281 5.664062 -17.347656 5.507812 -17.265625 5.34375 C -17.179688 5.175781 -17.050781 5.066406 -16.875 5.015625 L -3.59375 1.0625 C -3.414062 1.007812 -3.25 1.03125 -3.09375 1.125 C -2.9375 1.21875 -2.832031 1.335938 -2.78125 1.484375 Z M -2.78125 1.484375 "/></g></g></g><g clip-path="url(#42aafcdca1)"><path fill="#627abd" d="M 214.304688 192.785156 C 205.175781 182.382812 201.300781 168.261719 187.164062 168.261719 C 173.027344 168.261719 169.152344 182.382812 160.023438 192.785156 C 151.855469 202.089844 138.988281 206.421875 138.988281 219.335938 C 138.988281 234.402344 151.203125 246.617188 166.269531 246.617188 C 174.660156 246.617188 179.382812 236.867188 187.164062 236.867188 C 194.945312 236.867188 199.671875 246.617188 208.058594 246.617188 C 223.125 246.617188 235.335938 234.402344 235.335938 219.335938 C 235.335938 206.421875 222.46875 202.089844 214.304688 192.785156 " fill-opacity="1" fill-rule="nonzero"/></g><g clip-path="url(#2b43a5dfe2)"><path fill="#627abd" d="M 184.261719 135.179688 C 184.261719 147.144531 176.8125 156.847656 167.625 156.847656 C 158.433594 156.847656 150.984375 147.144531 150.984375 135.179688 C 150.984375 123.210938 158.433594 113.511719 167.625 113.511719 C 176.8125 113.511719 184.261719 123.210938 184.261719 135.179688 " fill-opacity="1" fill-rule="nonzero"/></g><g clip-path="url(#50d37a4ab1)"><path fill="#627abd" d="M 223.339844 135.179688 C 223.339844 147.144531 215.894531 156.847656 206.703125 156.847656 C 197.515625 156.847656 190.066406 147.144531 190.066406 135.179688 C 190.066406 123.210938 197.515625 113.511719 206.703125 113.511719 C 215.894531 113.511719 223.339844 123.210938 223.339844 135.179688 " fill-opacity="1" fill-rule="nonzero"/></g><path fill="#627abd" d="M 152.929688 166.3125 C 155.183594 178.066406 149.699219 189 140.671875 190.730469 C 131.648438 192.460938 122.503906 184.339844 120.246094 172.585938 C 117.992188 160.835938 123.476562 149.902344 132.503906 148.171875 C 141.527344 146.4375 150.671875 154.5625 152.929688 166.3125 " fill-opacity="1" fill-rule="nonzero"/><path fill="#627abd" d="M 252.9375 175.460938 C 248.871094 186.714844 238.570312 193.308594 229.929688 190.1875 C 221.285156 187.066406 217.574219 175.410156 221.640625 164.15625 C 225.707031 152.902344 236.007812 146.308594 244.652344 149.429688 C 253.292969 152.550781 257.003906 164.207031 252.9375 175.460938 " fill-opacity="1" fill-rule="nonzero"/></svg>