<svg xmlns="http://www.w3.org/2000/svg" xmlns:xlink="http://www.w3.org/1999/xlink" width="500" zoomAndPan="magnify" viewBox="0 0 375 374.999991" height="500" preserveAspectRatio="xMidYMid meet" version="1.0"><defs><filter x="0%" y="0%" width="100%" height="100%" id="507fa29205"><feColorMatrix values="0 0 0 0 1 0 0 0 0 1 0 0 0 0 1 0 0 0 1 0" color-interpolation-filters="sRGB"/></filter><g/><mask id="a54e5b49ed"><g filter="url(#507fa29205)"><rect x="-37.5" width="450" fill="#000000" y="-37.499999" height="449.999989" fill-opacity="0.45"/></g></mask><clipPath id="1bb7ad635d"><path d="M 0.28125 0.960938 L 351.640625 0.960938 L 351.640625 348.960938 L 0.28125 348.960938 Z M 0.28125 0.960938 " clip-rule="nonzero"/></clipPath><clipPath id="55627fab78"><path d="M 120 154 L 230 154 L 230 242.902344 L 120 242.902344 Z M 120 154 " clip-rule="nonzero"/></clipPath><clipPath id="aca57037a7"><path d="M 134 92.734375 L 173 92.734375 L 173 142 L 134 142 Z M 134 92.734375 " clip-rule="nonzero"/></clipPath><clipPath id="39aaca408d"><path d="M 178 92.734375 L 217 92.734375 L 217 142 L 178 142 Z M 178 92.734375 " clip-rule="nonzero"/></clipPath><clipPath id="b04c27ca59"><rect x="0" width="352" y="0" height="349"/></clipPath><clipPath id="98aa3f151b"><rect x="0" width="352" y="0" height="349"/></clipPath></defs><g mask="url(#a54e5b49ed)"><g transform="matrix(1, 0, 0, 1, 17, 12)"><g clip-path="url(#98aa3f151b)"><g clip-path="url(#1bb7ad635d)"><g><g clip-path="url(#b04c27ca59)"><g fill="#ffffff" fill-opacity="1"><g transform="translate(148.002347, 310.286281)"><g><path d="M -3.5625 -0.25 L -10.5625 24.265625 C -10.613281 24.460938 -10.722656 24.609375 -10.890625 24.703125 C -11.066406 24.796875 -11.257812 24.816406 -11.46875 24.765625 L -14.875 23.78125 C -15.070312 23.726562 -15.21875 23.613281 -15.3125 23.4375 C -15.414062 23.257812 -15.441406 23.070312 -15.390625 22.875 L -9.453125 2.109375 L -18.890625 -0.578125 C -19.085938 -0.628906 -19.234375 -0.742188 -19.328125 -0.921875 C -19.429688 -1.097656 -19.453125 -1.289062 -19.390625 -1.5 L -18.53125 -4.53125 C -18.476562 -4.695312 -18.363281 -4.832031 -18.1875 -4.9375 C -18.007812 -5.050781 -17.820312 -5.082031 -17.625 -5.03125 L -4.078125 -1.15625 C -3.867188 -1.101562 -3.71875 -0.976562 -3.625 -0.78125 C -3.53125 -0.59375 -3.507812 -0.414062 -3.5625 -0.25 Z M -3.5625 -0.25 "/></g></g></g><g fill="#ffffff" fill-opacity="1"><g transform="translate(111.740971, 297.695503)"><g><path d="M -8.90625 10.1875 C -10 11.769531 -11.3125 13.050781 -12.84375 14.03125 C -14.382812 15.019531 -16.035156 15.675781 -17.796875 16 C -19.566406 16.332031 -21.34375 16.320312 -23.125 15.96875 C -24.90625 15.613281 -26.59375 14.894531 -28.1875 13.8125 C -29.769531 12.71875 -31.050781 11.394531 -32.03125 9.84375 C -33.007812 8.300781 -33.65625 6.648438 -33.96875 4.890625 C -34.289062 3.128906 -34.269531 1.351562 -33.90625 -0.4375 C -33.550781 -2.226562 -32.828125 -3.914062 -31.734375 -5.5 C -30.640625 -7.09375 -29.320312 -8.367188 -27.78125 -9.328125 C -26.25 -10.296875 -24.601562 -10.945312 -22.84375 -11.28125 C -21.09375 -11.625 -19.320312 -11.609375 -17.53125 -11.234375 C -15.75 -10.867188 -14.066406 -10.140625 -12.484375 -9.046875 C -10.890625 -7.960938 -9.601562 -6.65625 -8.625 -5.125 C -7.65625 -3.59375 -7.003906 -1.941406 -6.671875 -0.171875 C -6.347656 1.597656 -6.363281 3.367188 -6.71875 5.140625 C -7.082031 6.910156 -7.8125 8.59375 -8.90625 10.1875 Z M -13.046875 7.34375 C -12.128906 6.007812 -11.617188 4.566406 -11.515625 3.015625 C -11.410156 1.472656 -11.6875 -0.00390625 -12.34375 -1.421875 C -13 -2.835938 -13.992188 -4 -15.328125 -4.90625 C -16.648438 -5.820312 -18.09375 -6.332031 -19.65625 -6.4375 C -21.21875 -6.550781 -22.703125 -6.285156 -24.109375 -5.640625 C -25.523438 -4.992188 -26.691406 -4.003906 -27.609375 -2.671875 C -28.523438 -1.335938 -29.035156 0.109375 -29.140625 1.671875 C -29.253906 3.234375 -28.984375 4.734375 -28.328125 6.171875 C -27.671875 7.609375 -26.679688 8.785156 -25.359375 9.703125 C -24.023438 10.609375 -22.578125 11.101562 -21.015625 11.1875 C -19.453125 11.28125 -17.960938 10.992188 -16.546875 10.328125 C -15.128906 9.671875 -13.960938 8.675781 -13.046875 7.34375 Z M -13.046875 7.34375 "/></g></g></g><g fill="#ffffff" fill-opacity="1"><g transform="translate(73.258385, 266.799195)"><g><path d="M -7.03125 -9.703125 L -21.109375 15.09375 C -21.253906 15.332031 -21.445312 15.457031 -21.6875 15.46875 C -21.9375 15.488281 -22.140625 15.382812 -22.296875 15.15625 L -24.59375 11.96875 C -24.707031 11.820312 -24.757812 11.675781 -24.75 11.53125 C -24.738281 11.382812 -24.703125 11.269531 -24.640625 11.1875 L -15.53125 -4.5 L -15.6875 -4.703125 L -33.4375 -1.03125 C -33.550781 -1.007812 -33.675781 -1.015625 -33.8125 -1.046875 C -33.945312 -1.085938 -34.0625 -1.175781 -34.15625 -1.3125 L -36.453125 -4.5 C -36.617188 -4.738281 -36.660156 -4.972656 -36.578125 -5.203125 C -36.492188 -5.441406 -36.3125 -5.582031 -36.03125 -5.625 L -8.015625 -11.078125 C -7.710938 -11.140625 -7.472656 -11.046875 -7.296875 -10.796875 L -7.078125 -10.5 C -6.898438 -10.257812 -6.882812 -9.992188 -7.03125 -9.703125 Z M -7.03125 -9.703125 "/></g></g></g><g fill="#ffffff" fill-opacity="1"><g transform="translate(49.998374, 228.969366)"><g><path d="M -1.765625 -3.125 L -26.078125 4.578125 C -26.265625 4.640625 -26.441406 4.625 -26.609375 4.53125 C -26.785156 4.445312 -26.90625 4.304688 -26.96875 4.109375 L -31.703125 -10.828125 C -31.765625 -11.035156 -31.75 -11.222656 -31.65625 -11.390625 C -31.570312 -11.566406 -31.4375 -11.6875 -31.25 -11.75 L -28.234375 -12.703125 C -28.054688 -12.753906 -27.875 -12.738281 -27.6875 -12.65625 C -27.5 -12.570312 -27.375 -12.425781 -27.3125 -12.21875 L -23.875 -1.375 L -17.84375 -3.28125 L -20.71875 -12.34375 C -20.769531 -12.53125 -20.75 -12.710938 -20.65625 -12.890625 C -20.570312 -13.066406 -20.4375 -13.1875 -20.25 -13.25 L -17.203125 -14.21875 C -17.003906 -14.28125 -16.8125 -14.265625 -16.625 -14.171875 C -16.445312 -14.078125 -16.332031 -13.9375 -16.28125 -13.75 L -13.40625 -4.6875 L -6.984375 -6.734375 L -10.421875 -17.578125 C -10.484375 -17.785156 -10.46875 -17.972656 -10.375 -18.140625 C -10.28125 -18.316406 -10.132812 -18.4375 -9.9375 -18.5 L -6.9375 -19.453125 C -6.769531 -19.503906 -6.585938 -19.488281 -6.390625 -19.40625 C -6.203125 -19.320312 -6.078125 -19.175781 -6.015625 -18.96875 L -1.28125 -4.03125 C -1.21875 -3.832031 -1.238281 -3.644531 -1.34375 -3.46875 C -1.457031 -3.289062 -1.597656 -3.175781 -1.765625 -3.125 Z M -1.765625 -3.125 "/></g></g></g><g fill="#ffffff" fill-opacity="1"><g transform="translate(40.60173, 187.873129)"><g><path d="M -16.40625 -1.5625 L -16.90625 -0.984375 C -17.03125 -0.847656 -17.179688 -0.789062 -17.359375 -0.8125 C -17.546875 -0.832031 -17.691406 -0.898438 -17.796875 -1.015625 C -17.898438 -1.148438 -18.160156 -1.414062 -18.578125 -1.8125 C -18.992188 -2.21875 -19.546875 -2.59375 -20.234375 -2.9375 C -20.921875 -3.289062 -21.71875 -3.445312 -22.625 -3.40625 C -22.625 -3.375 -22.582031 -3.25 -22.5 -3.03125 C -22.425781 -2.8125 -22.378906 -2.550781 -22.359375 -2.25 C -22.328125 -1.53125 -22.539062 -0.910156 -23 -0.390625 C -23.46875 0.128906 -24.0625 0.410156 -24.78125 0.453125 C -25.5 0.484375 -26.117188 0.257812 -26.640625 -0.21875 C -27.171875 -0.707031 -27.457031 -1.351562 -27.5 -2.15625 C -27.519531 -2.613281 -27.421875 -3.097656 -27.203125 -3.609375 C -26.984375 -4.117188 -26.578125 -4.550781 -25.984375 -4.90625 C -25.398438 -5.269531 -24.582031 -5.476562 -23.53125 -5.53125 C -22.28125 -5.59375 -21.175781 -5.4375 -20.21875 -5.0625 C -19.257812 -4.6875 -18.460938 -4.234375 -17.828125 -3.703125 C -17.203125 -3.179688 -16.726562 -2.765625 -16.40625 -2.453125 C -16.15625 -2.117188 -16.15625 -1.820312 -16.40625 -1.5625 Z M -16.40625 -1.5625 "/></g></g></g><g fill="#ffffff" fill-opacity="1"><g transform="translate(40.843366, 160.610456)"><g><path d="M -2.140625 -2.671875 C -2.347656 -2.535156 -2.523438 -2.445312 -2.671875 -2.40625 C -2.828125 -2.375 -3.039062 -2.472656 -3.3125 -2.703125 L -5.359375 -4.546875 C -5.617188 -4.742188 -5.726562 -4.976562 -5.6875 -5.25 C -5.644531 -5.519531 -5.546875 -5.726562 -5.390625 -5.875 C -5.347656 -5.925781 -5.171875 -6.109375 -4.859375 -6.421875 C -4.546875 -6.742188 -4.179688 -7.148438 -3.765625 -7.640625 C -3.347656 -8.128906 -2.960938 -8.675781 -2.609375 -9.28125 C -2.253906 -9.894531 -2.015625 -10.503906 -1.890625 -11.109375 C -1.691406 -12.085938 -1.8125 -12.957031 -2.25 -13.71875 C -2.6875 -14.488281 -3.304688 -14.957031 -4.109375 -15.125 C -5.054688 -15.3125 -5.972656 -15.078125 -6.859375 -14.421875 C -7.742188 -13.765625 -8.65625 -12.703125 -9.59375 -11.234375 C -10.3125 -10.148438 -11.128906 -9.140625 -12.046875 -8.203125 C -12.972656 -7.265625 -14.019531 -6.550781 -15.1875 -6.0625 C -16.363281 -5.582031 -17.695312 -5.492188 -19.1875 -5.796875 C -20.320312 -6.023438 -21.382812 -6.535156 -22.375 -7.328125 C -23.363281 -8.128906 -24.097656 -9.238281 -24.578125 -10.65625 C -25.066406 -12.070312 -25.113281 -13.769531 -24.71875 -15.75 C -24.457031 -17.03125 -24.050781 -18.160156 -23.5 -19.140625 C -22.957031 -20.117188 -22.410156 -20.914062 -21.859375 -21.53125 C -21.316406 -22.15625 -20.921875 -22.570312 -20.671875 -22.78125 C -20.523438 -22.96875 -20.316406 -23.050781 -20.046875 -23.03125 C -19.773438 -23.019531 -19.550781 -22.929688 -19.375 -22.765625 L -17.515625 -20.890625 C -17.328125 -20.703125 -17.195312 -20.472656 -17.125 -20.203125 C -17.0625 -19.929688 -17.132812 -19.691406 -17.34375 -19.484375 C -17.394531 -19.410156 -17.5625 -19.222656 -17.84375 -18.921875 C -18.132812 -18.617188 -18.460938 -18.234375 -18.828125 -17.765625 C -19.203125 -17.304688 -19.539062 -16.800781 -19.84375 -16.25 C -20.144531 -15.707031 -20.347656 -15.175781 -20.453125 -14.65625 C -20.671875 -13.570312 -20.546875 -12.6875 -20.078125 -12 C -19.617188 -11.320312 -19.085938 -10.921875 -18.484375 -10.796875 C -17.597656 -10.617188 -16.757812 -10.820312 -15.96875 -11.40625 C -15.175781 -11.988281 -14.3125 -12.988281 -13.375 -14.40625 C -12.8125 -15.226562 -12.191406 -16.054688 -11.515625 -16.890625 C -10.847656 -17.734375 -10.101562 -18.476562 -9.28125 -19.125 C -8.457031 -19.769531 -7.546875 -20.234375 -6.546875 -20.515625 C -5.554688 -20.796875 -4.453125 -20.8125 -3.234375 -20.5625 C -1.953125 -20.3125 -0.8125 -19.71875 0.1875 -18.78125 C 1.195312 -17.84375 1.925781 -16.65625 2.375 -15.21875 C 2.820312 -13.78125 2.863281 -12.171875 2.5 -10.390625 C 2.175781 -8.804688 1.703125 -7.476562 1.078125 -6.40625 C 0.453125 -5.332031 -0.164062 -4.492188 -0.78125 -3.890625 C -1.394531 -3.285156 -1.847656 -2.878906 -2.140625 -2.671875 Z M -2.140625 -2.671875 "/></g></g></g><g fill="#ffffff" fill-opacity="1"><g transform="translate(65.902984, 97.183603)"><g><path d="M 1.6875 -3.140625 L -17.8125 -19.578125 C -17.957031 -19.703125 -18.035156 -19.863281 -18.046875 -20.0625 C -18.066406 -20.269531 -18.007812 -20.453125 -17.875 -20.609375 L -15.59375 -23.328125 C -15.457031 -23.484375 -15.289062 -23.566406 -15.09375 -23.578125 C -14.894531 -23.597656 -14.722656 -23.546875 -14.578125 -23.421875 L 1.953125 -9.5 L 8.28125 -17 C 8.414062 -17.15625 8.578125 -17.238281 8.765625 -17.25 C 8.960938 -17.269531 9.144531 -17.210938 9.3125 -17.078125 L 11.71875 -15.046875 C 11.851562 -14.929688 11.9375 -14.769531 11.96875 -14.5625 C 12 -14.351562 11.945312 -14.171875 11.8125 -14.015625 L 2.734375 -3.234375 C 2.597656 -3.078125 2.421875 -2.992188 2.203125 -2.984375 C 1.992188 -2.972656 1.820312 -3.023438 1.6875 -3.140625 Z M 1.6875 -3.140625 "/></g></g></g><g fill="#ffffff" fill-opacity="1"><g transform="translate(92.715363, 69.422363)"><g><path d="M 2.53125 -2.515625 L -11.3125 -23.9375 C -11.414062 -24.101562 -11.445312 -24.28125 -11.40625 -24.46875 C -11.363281 -24.664062 -11.253906 -24.820312 -11.078125 -24.9375 L 2.078125 -33.453125 C 2.253906 -33.566406 2.4375 -33.597656 2.625 -33.546875 C 2.820312 -33.503906 2.972656 -33.398438 3.078125 -33.234375 L 4.796875 -30.578125 C 4.898438 -30.421875 4.9375 -30.242188 4.90625 -30.046875 C 4.875 -29.847656 4.769531 -29.691406 4.59375 -29.578125 L -4.96875 -23.390625 L -1.546875 -18.078125 L 6.4375 -23.25 C 6.601562 -23.351562 6.785156 -23.382812 6.984375 -23.34375 C 7.179688 -23.300781 7.332031 -23.195312 7.4375 -23.03125 L 9.1875 -20.34375 C 9.300781 -20.164062 9.332031 -19.976562 9.28125 -19.78125 C 9.238281 -19.582031 9.132812 -19.429688 8.96875 -19.328125 L 0.984375 -14.15625 L 4.640625 -8.515625 L 14.203125 -14.703125 C 14.378906 -14.816406 14.5625 -14.847656 14.75 -14.796875 C 14.945312 -14.753906 15.101562 -14.644531 15.21875 -14.46875 L 16.921875 -11.8125 C 17.023438 -11.664062 17.0625 -11.488281 17.03125 -11.28125 C 17 -11.082031 16.894531 -10.925781 16.71875 -10.8125 L 3.5625 -2.296875 C 3.382812 -2.179688 3.191406 -2.148438 2.984375 -2.203125 C 2.785156 -2.265625 2.632812 -2.367188 2.53125 -2.515625 Z M 2.53125 -2.515625 "/></g></g></g><g fill="#ffffff" fill-opacity="1"><g transform="translate(128.958034, 49.171446)"><g><path d="M -1.796875 -13.40625 C -2.273438 -15.269531 -2.375 -17.101562 -2.09375 -18.90625 C -1.8125 -20.71875 -1.21875 -22.394531 -0.3125 -23.9375 C 0.582031 -25.488281 1.75 -26.816406 3.1875 -27.921875 C 4.625 -29.035156 6.273438 -29.828125 8.140625 -30.296875 C 9.835938 -30.734375 11.539062 -30.847656 13.25 -30.640625 C 14.957031 -30.429688 16.582031 -29.941406 18.125 -29.171875 C 18.320312 -29.054688 18.453125 -28.898438 18.515625 -28.703125 C 18.578125 -28.515625 18.550781 -28.328125 18.4375 -28.140625 L 16.75 -25.125 C 16.53125 -24.75 16.207031 -24.664062 15.78125 -24.875 C 13.757812 -25.894531 11.695312 -26.132812 9.59375 -25.59375 C 8.050781 -25.195312 6.742188 -24.4375 5.671875 -23.3125 C 4.609375 -22.195312 3.875 -20.890625 3.46875 -19.390625 C 3.0625 -17.890625 3.054688 -16.359375 3.453125 -14.796875 C 3.847656 -13.253906 4.582031 -11.929688 5.65625 -10.828125 C 6.726562 -9.734375 8 -8.953125 9.46875 -8.484375 C 10.945312 -8.023438 12.46875 -8 14.03125 -8.40625 C 15.070312 -8.664062 15.945312 -9.007812 16.65625 -9.4375 C 17.375 -9.875 17.898438 -10.222656 18.234375 -10.484375 L 17.421875 -13.640625 L 14.4375 -12.875 C 13.96875 -12.75 13.675781 -12.914062 13.5625 -13.375 L 12.796875 -16.328125 C 12.679688 -16.785156 12.859375 -17.078125 13.328125 -17.203125 L 20.5 -19.03125 C 20.6875 -19.082031 20.859375 -19.054688 21.015625 -18.953125 C 21.179688 -18.847656 21.285156 -18.703125 21.328125 -18.515625 L 23.78125 -8.9375 C 23.820312 -8.800781 23.828125 -8.675781 23.796875 -8.5625 C 23.765625 -8.445312 23.710938 -8.351562 23.640625 -8.28125 C 23.640625 -8.28125 23.445312 -8.097656 23.0625 -7.734375 C 22.6875 -7.367188 22.117188 -6.921875 21.359375 -6.390625 C 20.597656 -5.867188 19.679688 -5.335938 18.609375 -4.796875 C 17.546875 -4.265625 16.34375 -3.828125 15 -3.484375 C 13.132812 -3.015625 11.304688 -2.910156 9.515625 -3.171875 C 7.734375 -3.429688 6.078125 -4.015625 4.546875 -4.921875 C 3.015625 -5.835938 1.691406 -7.015625 0.578125 -8.453125 C -0.523438 -9.890625 -1.316406 -11.539062 -1.796875 -13.40625 Z M -1.796875 -13.40625 "/></g></g></g><g fill="#ffffff" fill-opacity="1"><g transform="translate(174.345721, 40.942918)"><g><path d="M 0.734375 0.0625 C 0.453125 0.0390625 0.253906 -0.0703125 0.140625 -0.28125 C 0.0234375 -0.5 0.03125 -0.738281 0.15625 -1 L 14.234375 -25.828125 C 14.398438 -26.097656 14.628906 -26.222656 14.921875 -26.203125 L 15.296875 -26.171875 C 15.503906 -26.148438 15.648438 -26.097656 15.734375 -26.015625 C 15.816406 -25.929688 15.878906 -25.820312 15.921875 -25.6875 L 25.59375 1.109375 C 25.707031 1.378906 25.6875 1.609375 25.53125 1.796875 C 25.375 1.992188 25.15625 2.082031 24.875 2.0625 L 21.53125 1.78125 C 21.039062 1.738281 20.691406 1.453125 20.484375 0.921875 L 18.953125 -3.390625 L 7.46875 -4.34375 L 5.25 -0.34375 C 5.15625 -0.164062 5.007812 -0.00390625 4.8125 0.140625 C 4.625 0.296875 4.375 0.363281 4.0625 0.34375 Z M 9.703125 -8.4375 L 17.421875 -7.796875 L 14.265625 -16.546875 L 14.15625 -16.5625 Z M 9.703125 -8.4375 "/></g></g></g><g fill="#ffffff" fill-opacity="1"><g transform="translate(218.145003, 47.615318)"><g><path d="M 6.796875 -11.6875 C 7.578125 -13.445312 8.628906 -14.953125 9.953125 -16.203125 C 11.285156 -17.460938 12.789062 -18.421875 14.46875 -19.078125 C 16.144531 -19.734375 17.894531 -20.050781 19.71875 -20.03125 C 21.550781 -20.019531 23.34375 -19.628906 25.09375 -18.859375 C 26.894531 -18.078125 28.347656 -17.113281 29.453125 -15.96875 C 30.566406 -14.832031 31.484375 -13.460938 32.203125 -11.859375 C 32.304688 -11.640625 32.316406 -11.4375 32.234375 -11.25 C 32.160156 -11.0625 32.019531 -10.925781 31.8125 -10.84375 L 28.703125 -9.5625 C 28.285156 -9.382812 27.988281 -9.515625 27.8125 -9.953125 C 27.363281 -10.941406 26.742188 -11.820312 25.953125 -12.59375 C 25.160156 -13.375 24.273438 -13.976562 23.296875 -14.40625 C 21.785156 -15.0625 20.269531 -15.269531 18.75 -15.03125 C 17.226562 -14.800781 15.851562 -14.210938 14.625 -13.265625 C 13.40625 -12.316406 12.472656 -11.101562 11.828125 -9.625 C 11.179688 -8.164062 10.929688 -6.660156 11.078125 -5.109375 C 11.234375 -3.566406 11.742188 -2.160156 12.609375 -0.890625 C 13.472656 0.367188 14.648438 1.328125 16.140625 1.984375 C 17.203125 2.441406 18.269531 2.679688 19.34375 2.703125 C 20.414062 2.722656 21.445312 2.597656 22.4375 2.328125 C 22.632812 2.273438 22.816406 2.285156 22.984375 2.359375 C 23.160156 2.441406 23.273438 2.5625 23.328125 2.71875 L 24.53125 5.9375 C 24.625 6.113281 24.613281 6.296875 24.5 6.484375 C 24.382812 6.671875 24.238281 6.800781 24.0625 6.875 C 22.375 7.5 20.664062 7.769531 18.9375 7.6875 C 17.21875 7.613281 15.566406 7.234375 13.984375 6.546875 C 12.234375 5.773438 10.726562 4.726562 9.46875 3.40625 C 8.207031 2.082031 7.25 0.585938 6.59375 -1.078125 C 5.9375 -2.753906 5.613281 -4.5 5.625 -6.3125 C 5.632812 -8.125 6.023438 -9.914062 6.796875 -11.6875 Z M 6.796875 -11.6875 "/></g></g></g><g fill="#ffffff" fill-opacity="1"><g transform="translate(258.102012, 68.714884)"><g><path d="M 7 5.296875 L 15.1875 -3.828125 L 17.25 -19.25 C 17.289062 -19.550781 17.4375 -19.75 17.6875 -19.84375 C 17.945312 -19.9375 18.195312 -19.878906 18.4375 -19.671875 L 21.34375 -17.0625 C 21.46875 -16.957031 21.539062 -16.84375 21.5625 -16.71875 C 21.59375 -16.59375 21.597656 -16.484375 21.578125 -16.390625 L 20.25 -5.6875 L 30.75 -8.15625 C 30.851562 -8.1875 30.960938 -8.191406 31.078125 -8.171875 C 31.203125 -8.160156 31.320312 -8.101562 31.4375 -8 L 34.40625 -5.34375 C 34.632812 -5.132812 34.710938 -4.898438 34.640625 -4.640625 C 34.578125 -4.378906 34.40625 -4.203125 34.125 -4.109375 L 18.921875 -0.5 L 10.71875 8.640625 C 10.601562 8.773438 10.441406 8.851562 10.234375 8.875 C 10.023438 8.894531 9.84375 8.832031 9.6875 8.6875 L 7.046875 6.328125 C 6.898438 6.191406 6.828125 6.019531 6.828125 5.8125 C 6.828125 5.601562 6.882812 5.429688 7 5.296875 Z M 7 5.296875 "/></g></g></g><g fill="#ffffff" fill-opacity="1"><g transform="translate(286.930674, 99.169211)"><g/></g></g><g fill="#ffffff" fill-opacity="1"><g transform="translate(301.058816, 123.389909)"><g><path d="M 1.78125 3.109375 L 26.046875 -4.71875 C 26.234375 -4.78125 26.414062 -4.765625 26.59375 -4.671875 C 26.769531 -4.578125 26.890625 -4.429688 26.953125 -4.234375 L 30.328125 6.25 C 30.804688 7.71875 30.882812 9.171875 30.5625 10.609375 C 30.25 12.046875 29.613281 13.316406 28.65625 14.421875 C 27.695312 15.523438 26.488281 16.3125 25.03125 16.78125 C 23.34375 17.332031 21.679688 17.304688 20.046875 16.703125 C 18.410156 16.109375 17.019531 15.125 15.875 13.75 L 8.1875 21.75 C 7.988281 21.96875 7.753906 22.054688 7.484375 22.015625 C 7.210938 21.984375 7.023438 21.800781 6.921875 21.46875 L 5.6875 17.640625 C 5.625 17.460938 5.613281 17.316406 5.65625 17.203125 C 5.707031 17.097656 5.757812 17.007812 5.8125 16.9375 L 13.953125 8.9375 L 12.640625 4.875 L 3.3125 7.890625 C 3.144531 7.941406 2.960938 7.921875 2.765625 7.828125 C 2.578125 7.742188 2.453125 7.601562 2.390625 7.40625 L 1.296875 4.03125 C 1.234375 3.832031 1.253906 3.640625 1.359375 3.453125 C 1.472656 3.273438 1.613281 3.160156 1.78125 3.109375 Z M 16.59375 3.640625 L 18.515625 9.609375 C 18.828125 10.597656 19.46875 11.332031 20.4375 11.8125 C 21.40625 12.300781 22.40625 12.378906 23.4375 12.046875 C 24.40625 11.734375 25.117188 11.101562 25.578125 10.15625 C 26.046875 9.21875 26.125 8.253906 25.8125 7.265625 L 23.890625 1.296875 Z M 16.59375 3.640625 "/></g></g></g><g fill="#ffffff" fill-opacity="1"><g transform="translate(311.588454, 166.641959)"><g><path d="M 0.71875 3.5 L 26.21875 3.65625 C 26.414062 3.65625 26.582031 3.722656 26.71875 3.859375 C 26.863281 4.003906 26.929688 4.179688 26.921875 4.390625 L 26.84375 20.0625 C 26.832031 20.269531 26.753906 20.441406 26.609375 20.578125 C 26.472656 20.722656 26.304688 20.796875 26.109375 20.796875 L 22.953125 20.78125 C 22.765625 20.769531 22.59375 20.691406 22.4375 20.546875 C 22.289062 20.410156 22.222656 20.238281 22.234375 20.03125 L 22.296875 8.640625 L 15.96875 8.609375 L 15.90625 18.125 C 15.90625 18.320312 15.832031 18.488281 15.6875 18.625 C 15.550781 18.769531 15.382812 18.84375 15.1875 18.84375 L 11.984375 18.8125 C 11.773438 18.8125 11.597656 18.738281 11.453125 18.59375 C 11.316406 18.457031 11.25 18.289062 11.25 18.09375 L 11.3125 8.578125 L 4.578125 8.546875 L 4.515625 19.9375 C 4.503906 20.144531 4.425781 20.316406 4.28125 20.453125 C 4.144531 20.597656 3.972656 20.664062 3.765625 20.65625 L 0.609375 20.640625 C 0.429688 20.640625 0.265625 20.566406 0.109375 20.421875 C -0.046875 20.285156 -0.117188 20.113281 -0.109375 19.90625 L -0.03125 4.234375 C -0.0195312 4.023438 0.0625 3.847656 0.21875 3.703125 C 0.375 3.566406 0.539062 3.5 0.71875 3.5 Z M 0.71875 3.5 "/></g></g></g><g fill="#ffffff" fill-opacity="1"><g transform="translate(308.33549, 208.220105)"><g><path d="M 1.828125 2.890625 C 2.054688 2.765625 2.242188 2.691406 2.390625 2.671875 C 2.546875 2.660156 2.75 2.785156 3 3.046875 L 4.84375 5.09375 C 5.070312 5.332031 5.148438 5.582031 5.078125 5.84375 C 5.003906 6.101562 4.882812 6.300781 4.71875 6.4375 C 4.675781 6.476562 4.476562 6.632812 4.125 6.90625 C 3.78125 7.175781 3.375 7.535156 2.90625 7.984375 C 2.445312 8.441406 2.003906 8.953125 1.578125 9.515625 C 1.160156 10.078125 0.863281 10.65625 0.6875 11.25 C 0.382812 12.195312 0.40625 13.078125 0.75 13.890625 C 1.101562 14.703125 1.671875 15.234375 2.453125 15.484375 C 3.378906 15.773438 4.3125 15.640625 5.25 15.078125 C 6.195312 14.515625 7.222656 13.5625 8.328125 12.21875 C 9.160156 11.207031 10.085938 10.285156 11.109375 9.453125 C 12.128906 8.617188 13.242188 8.023438 14.453125 7.671875 C 15.660156 7.316406 16.988281 7.367188 18.4375 7.828125 C 19.539062 8.171875 20.539062 8.796875 21.4375 9.703125 C 22.34375 10.609375 22.960938 11.789062 23.296875 13.25 C 23.628906 14.707031 23.488281 16.394531 22.875 18.3125 C 22.476562 19.570312 21.953125 20.65625 21.296875 21.5625 C 20.648438 22.476562 20.019531 23.21875 19.40625 23.78125 C 18.800781 24.34375 18.363281 24.707031 18.09375 24.875 C 17.925781 25.039062 17.707031 25.101562 17.4375 25.0625 C 17.175781 25.019531 16.972656 24.90625 16.828125 24.71875 L 15.15625 22.671875 C 14.976562 22.453125 14.875 22.203125 14.84375 21.921875 C 14.8125 21.648438 14.910156 21.421875 15.140625 21.234375 C 15.191406 21.171875 15.375 21.003906 15.6875 20.734375 C 16.007812 20.460938 16.378906 20.113281 16.796875 19.6875 C 17.210938 19.269531 17.601562 18.804688 17.96875 18.296875 C 18.332031 17.796875 18.59375 17.289062 18.75 16.78125 C 19.082031 15.726562 19.054688 14.835938 18.671875 14.109375 C 18.296875 13.378906 17.8125 12.921875 17.21875 12.734375 C 16.351562 12.460938 15.492188 12.570312 14.640625 13.0625 C 13.785156 13.5625 12.816406 14.46875 11.734375 15.78125 C 11.085938 16.53125 10.382812 17.285156 9.625 18.046875 C 8.875 18.804688 8.054688 19.460938 7.171875 20.015625 C 6.285156 20.566406 5.328125 20.929688 4.296875 21.109375 C 3.273438 21.285156 2.171875 21.1875 0.984375 20.8125 C -0.253906 20.414062 -1.320312 19.695312 -2.21875 18.65625 C -3.113281 17.613281 -3.703125 16.351562 -3.984375 14.875 C -4.273438 13.394531 -4.144531 11.785156 -3.59375 10.046875 C -3.113281 8.503906 -2.503906 7.238281 -1.765625 6.25 C -1.023438 5.257812 -0.316406 4.492188 0.359375 3.953125 C 1.035156 3.410156 1.523438 3.054688 1.828125 2.890625 Z M 1.828125 2.890625 "/></g></g></g><g fill="#ffffff" fill-opacity="1"><g transform="translate(293.886755, 245.354772)"><g><path d="M 10.03125 9.078125 C 11.59375 10.203125 12.847656 11.546875 13.796875 13.109375 C 14.753906 14.671875 15.378906 16.335938 15.671875 18.109375 C 15.960938 19.878906 15.910156 21.65625 15.515625 23.4375 C 15.128906 25.226562 14.378906 26.90625 13.265625 28.46875 C 12.128906 30.0625 10.882812 31.28125 9.53125 32.125 C 8.175781 32.96875 6.640625 33.582031 4.921875 33.96875 C 4.691406 34.019531 4.492188 33.984375 4.328125 33.859375 C 4.160156 33.742188 4.0625 33.578125 4.03125 33.359375 L 3.421875 30.046875 C 3.328125 29.609375 3.515625 29.347656 3.984375 29.265625 C 5.023438 29.035156 6.007812 28.613281 6.9375 28 C 7.875 27.382812 8.65625 26.640625 9.28125 25.765625 C 10.238281 24.429688 10.753906 22.992188 10.828125 21.453125 C 10.910156 19.921875 10.617188 18.457031 9.953125 17.0625 C 9.285156 15.664062 8.296875 14.5 6.984375 13.5625 C 5.691406 12.632812 4.269531 12.082031 2.71875 11.90625 C 1.164062 11.738281 -0.316406 11.941406 -1.734375 12.515625 C -3.148438 13.097656 -4.332031 14.054688 -5.28125 15.390625 C -5.957031 16.328125 -6.414062 17.316406 -6.65625 18.359375 C -6.894531 19.410156 -6.984375 20.445312 -6.921875 21.46875 C -6.898438 21.664062 -6.945312 21.84375 -7.0625 22 C -7.175781 22.15625 -7.316406 22.238281 -7.484375 22.25 L -10.875 22.75 C -11.0625 22.8125 -11.238281 22.769531 -11.40625 22.625 C -11.570312 22.476562 -11.671875 22.304688 -11.703125 22.109375 C -11.960938 20.328125 -11.875 18.601562 -11.4375 16.9375 C -11.007812 15.269531 -10.296875 13.734375 -9.296875 12.328125 C -8.179688 10.765625 -6.847656 9.503906 -5.296875 8.546875 C -3.742188 7.597656 -2.078125 6.972656 -0.296875 6.671875 C 1.472656 6.378906 3.242188 6.425781 5.015625 6.8125 C 6.785156 7.207031 8.457031 7.960938 10.03125 9.078125 Z M 10.03125 9.078125 "/></g></g></g><g fill="#ffffff" fill-opacity="1"><g transform="translate(265.264505, 280.142161)"><g><path d="M 3.3125 10.140625 L 12.53125 23.25 C 12.644531 23.414062 12.679688 23.597656 12.640625 23.796875 C 12.609375 24.003906 12.519531 24.160156 12.375 24.265625 L 9.375 26.375 C 9.207031 26.488281 9.019531 26.53125 8.8125 26.5 C 8.613281 26.46875 8.457031 26.367188 8.34375 26.203125 L -0.71875 13.3125 C -1.34375 12.4375 -2.097656 11.769531 -2.984375 11.3125 C -3.867188 10.851562 -4.804688 10.648438 -5.796875 10.703125 C -6.796875 10.753906 -7.75 11.097656 -8.65625 11.734375 C -9.570312 12.378906 -10.222656 13.148438 -10.609375 14.046875 C -11.003906 14.953125 -11.140625 15.898438 -11.015625 16.890625 C -10.890625 17.890625 -10.519531 18.832031 -9.90625 19.71875 L -0.8125 32.640625 C -0.695312 32.804688 -0.65625 32.988281 -0.6875 33.1875 C -0.71875 33.382812 -0.820312 33.546875 -1 33.671875 L -3.984375 35.765625 C -4.148438 35.890625 -4.332031 35.929688 -4.53125 35.890625 C -4.726562 35.859375 -4.882812 35.757812 -5 35.59375 L -14.21875 22.484375 C -15.34375 20.890625 -15.976562 19.160156 -16.125 17.296875 C -16.269531 15.441406 -15.953125 13.660156 -15.171875 11.953125 C -14.398438 10.253906 -13.1875 8.816406 -11.53125 7.640625 C -9.894531 6.492188 -8.140625 5.84375 -6.265625 5.6875 C -4.390625 5.53125 -2.601562 5.832031 -0.90625 6.59375 C 0.78125 7.363281 2.1875 8.546875 3.3125 10.140625 Z M 3.3125 10.140625 "/></g></g></g><g fill="#ffffff" fill-opacity="1"><g transform="translate(225.384245, 303.976418)"><g><path d="M -3.15625 1.703125 L 4.109375 26.140625 C 4.171875 26.335938 4.148438 26.519531 4.046875 26.6875 C 3.953125 26.863281 3.804688 26.976562 3.609375 27.03125 L -11.40625 31.5 C -11.601562 31.5625 -11.785156 31.546875 -11.953125 31.453125 C -12.128906 31.359375 -12.25 31.210938 -12.3125 31.015625 L -13.203125 28 C -13.253906 27.820312 -13.234375 27.640625 -13.140625 27.453125 C -13.054688 27.273438 -12.914062 27.15625 -12.71875 27.09375 L -1.796875 23.84375 L -3.59375 17.78125 L -12.71875 20.5 C -12.90625 20.550781 -13.085938 20.53125 -13.265625 20.4375 C -13.441406 20.34375 -13.554688 20.195312 -13.609375 20 L -14.515625 16.9375 C -14.578125 16.738281 -14.5625 16.550781 -14.46875 16.375 C -14.375 16.195312 -14.234375 16.082031 -14.046875 16.03125 L -4.921875 13.3125 L -6.84375 6.859375 L -17.765625 10.109375 C -17.960938 10.171875 -18.144531 10.148438 -18.3125 10.046875 C -18.488281 9.953125 -18.609375 9.804688 -18.671875 9.609375 L -19.578125 6.578125 C -19.617188 6.410156 -19.59375 6.234375 -19.5 6.046875 C -19.414062 5.859375 -19.273438 5.734375 -19.078125 5.671875 L -4.0625 1.203125 C -3.863281 1.148438 -3.671875 1.175781 -3.484375 1.28125 C -3.304688 1.394531 -3.195312 1.535156 -3.15625 1.703125 Z M -3.15625 1.703125 "/></g></g></g><g clip-path="url(#55627fab78)"><path fill="#ffffff" d="M 206.109375 182.410156 C 195.785156 170.640625 191.398438 154.667969 175.410156 154.667969 C 159.417969 154.667969 155.03125 170.640625 144.707031 182.410156 C 135.46875 192.933594 120.914062 197.835938 120.914062 212.445312 C 120.914062 229.488281 134.730469 243.304688 151.769531 243.304688 C 161.261719 243.304688 166.605469 232.277344 175.410156 232.277344 C 184.207031 232.277344 189.554688 243.304688 199.046875 243.304688 C 216.085938 243.304688 229.902344 229.488281 229.902344 212.445312 C 229.902344 197.835938 215.347656 192.933594 206.109375 182.410156 " fill-opacity="1" fill-rule="nonzero"/></g><g clip-path="url(#aca57037a7)"><path fill="#ffffff" d="M 172.125 117.246094 C 172.125 130.78125 163.699219 141.757812 153.304688 141.757812 C 142.910156 141.757812 134.480469 130.78125 134.480469 117.246094 C 134.480469 103.707031 142.910156 92.734375 153.304688 92.734375 C 163.699219 92.734375 172.125 103.707031 172.125 117.246094 " fill-opacity="1" fill-rule="nonzero"/></g><g clip-path="url(#39aaca408d)"><path fill="#ffffff" d="M 216.332031 117.246094 C 216.332031 130.78125 207.90625 141.757812 197.511719 141.757812 C 187.117188 141.757812 178.691406 130.78125 178.691406 117.246094 C 178.691406 103.707031 187.117188 92.734375 197.511719 92.734375 C 207.90625 92.734375 216.332031 103.707031 216.332031 117.246094 " fill-opacity="1" fill-rule="nonzero"/></g><path fill="#ffffff" d="M 136.679688 152.464844 C 139.234375 165.757812 133.027344 178.125 122.816406 180.085938 C 112.609375 182.042969 102.265625 172.855469 99.710938 159.5625 C 97.160156 146.269531 103.367188 133.902344 113.574219 131.941406 C 123.78125 129.980469 134.128906 139.171875 136.679688 152.464844 " fill-opacity="1" fill-rule="nonzero"/><path fill="#ffffff" d="M 249.8125 162.8125 C 245.214844 175.542969 233.558594 183.003906 223.785156 179.472656 C 214.003906 175.941406 209.808594 162.757812 214.40625 150.023438 C 219.007812 137.292969 230.660156 129.835938 240.4375 133.363281 C 250.214844 136.894531 254.410156 150.082031 249.8125 162.8125 " fill-opacity="1" fill-rule="nonzero"/></g></g></g></g></g></g></svg>