<svg xmlns="http://www.w3.org/2000/svg" xmlns:xlink="http://www.w3.org/1999/xlink" width="400" zoomAndPan="magnify" viewBox="0 0 300 149.999998" height="200" preserveAspectRatio="xMidYMid meet" version="1.0"><defs><g/><clipPath id="7c9ad7e675"><path d="M 67 52 L 107 52 L 107 85.070312 L 67 85.070312 Z M 67 52 " clip-rule="nonzero"/></clipPath><clipPath id="6cae30b824"><path d="M 72 30.320312 L 86 30.320312 L 86 49 L 72 49 Z M 72 30.320312 " clip-rule="nonzero"/></clipPath><clipPath id="00527b0388"><path d="M 88 30.320312 L 103 30.320312 L 103 49 L 88 49 Z M 88 30.320312 " clip-rule="nonzero"/></clipPath><clipPath id="ccfaada631"><rect x="0" width="161" y="0" height="103"/></clipPath><clipPath id="be4216db4a"><rect x="0" width="42" y="0" height="104"/></clipPath></defs><rect x="-30" width="360" fill="#ffffff" y="-15" height="179.999997" fill-opacity="1"/><rect x="-30" width="360" fill="#ffffff" y="-15" height="179.999997" fill-opacity="1"/><g clip-path="url(#7c9ad7e675)"><path fill="#e0eaf9" d="M 98.328125 62.957031 C 94.570312 58.671875 92.972656 52.859375 87.152344 52.859375 C 81.332031 52.859375 79.738281 58.671875 75.980469 62.957031 C 72.617188 66.785156 67.320312 68.570312 67.320312 73.886719 C 67.320312 80.089844 72.347656 85.117188 78.550781 85.117188 C 82.003906 85.117188 83.949219 81.105469 87.152344 81.105469 C 90.355469 81.105469 92.300781 85.117188 95.753906 85.117188 C 101.957031 85.117188 106.984375 80.089844 106.984375 73.886719 C 106.984375 68.570312 101.6875 66.785156 98.328125 62.957031 " fill-opacity="1" fill-rule="nonzero"/></g><g clip-path="url(#6cae30b824)"><path fill="#e0eaf9" d="M 85.957031 39.238281 C 85.957031 44.164062 82.890625 48.160156 79.109375 48.160156 C 75.324219 48.160156 72.257812 44.164062 72.257812 39.238281 C 72.257812 34.3125 75.324219 30.320312 79.109375 30.320312 C 82.890625 30.320312 85.957031 34.3125 85.957031 39.238281 " fill-opacity="1" fill-rule="nonzero"/></g><g clip-path="url(#00527b0388)"><path fill="#e0eaf9" d="M 102.046875 39.238281 C 102.046875 44.164062 98.980469 48.160156 95.199219 48.160156 C 91.414062 48.160156 88.347656 44.164062 88.347656 39.238281 C 88.347656 34.3125 91.414062 30.320312 95.199219 30.320312 C 98.980469 30.320312 102.046875 34.3125 102.046875 39.238281 " fill-opacity="1" fill-rule="nonzero"/></g><path fill="#e0eaf9" d="M 73.058594 52.058594 C 73.988281 56.894531 71.726562 61.398438 68.011719 62.109375 C 64.296875 62.824219 60.53125 59.476562 59.605469 54.640625 C 58.675781 49.800781 60.933594 45.300781 64.648438 44.589844 C 68.363281 43.875 72.128906 47.21875 73.058594 52.058594 " fill-opacity="1" fill-rule="nonzero"/><path fill="#e0eaf9" d="M 114.230469 55.824219 C 112.558594 60.457031 108.316406 63.171875 104.757812 61.886719 C 101.199219 60.601562 99.671875 55.804688 101.347656 51.167969 C 103.019531 46.535156 107.261719 43.820312 110.820312 45.105469 C 114.378906 46.390625 115.90625 51.191406 114.230469 55.824219 " fill-opacity="1" fill-rule="nonzero"/><g transform="matrix(1, 0, 0, 1, 120, 6)"><g clip-path="url(#ccfaada631)"><g fill="#ffffff" fill-opacity="1"><g transform="translate(1.278277, 75.296346)"><g><path d="M 22.328125 -0.078125 L 0.140625 -48.375 C -0.046875 -48.851562 -0.0195312 -49.285156 0.21875 -49.671875 C 0.457031 -50.054688 0.835938 -50.25 1.359375 -50.25 L 8.6875 -50.25 C 9.019531 -50.25 9.289062 -50.164062 9.5 -50 C 9.71875 -49.832031 9.851562 -49.648438 9.90625 -49.453125 L 23.6875 -18.59375 L 24.1875 -18.59375 L 37.96875 -49.453125 C 38.0625 -49.648438 38.203125 -49.832031 38.390625 -50 C 38.585938 -50.164062 38.851562 -50.25 39.1875 -50.25 L 46.515625 -50.25 C 47.035156 -50.25 47.425781 -50.054688 47.6875 -49.671875 C 47.957031 -49.285156 47.972656 -48.851562 47.734375 -48.375 L 25.484375 -0.078125 C 25.242188 0.453125 24.835938 0.71875 24.265625 0.71875 L 23.546875 0.71875 C 23.015625 0.71875 22.609375 0.453125 22.328125 -0.078125 Z M 22.328125 -0.078125 "/></g></g></g><g fill="#ffffff" fill-opacity="1"><g transform="translate(52.960282, 75.296346)"><g><path d="M 6.53125 -1.359375 L 6.53125 -48.890625 C 6.53125 -49.265625 6.660156 -49.582031 6.921875 -49.84375 C 7.191406 -50.113281 7.515625 -50.25 7.890625 -50.25 L 37.109375 -50.25 C 37.492188 -50.25 37.816406 -50.113281 38.078125 -49.84375 C 38.335938 -49.582031 38.46875 -49.265625 38.46875 -48.890625 L 38.46875 -43 C 38.46875 -42.664062 38.335938 -42.351562 38.078125 -42.0625 C 37.816406 -41.78125 37.492188 -41.640625 37.109375 -41.640625 L 15.859375 -41.640625 L 15.859375 -29.859375 L 33.59375 -29.859375 C 33.976562 -29.859375 34.300781 -29.726562 34.5625 -29.46875 C 34.820312 -29.207031 34.953125 -28.882812 34.953125 -28.5 L 34.953125 -22.546875 C 34.953125 -22.160156 34.820312 -21.832031 34.5625 -21.5625 C 34.300781 -21.300781 33.976562 -21.171875 33.59375 -21.171875 L 15.859375 -21.171875 L 15.859375 -8.609375 L 37.109375 -8.609375 C 37.492188 -8.609375 37.816406 -8.476562 38.078125 -8.21875 C 38.335938 -7.957031 38.46875 -7.632812 38.46875 -7.25 L 38.46875 -1.359375 C 38.46875 -1.023438 38.335938 -0.710938 38.078125 -0.421875 C 37.816406 -0.140625 37.492188 0 37.109375 0 L 7.890625 0 C 7.515625 0 7.191406 -0.140625 6.921875 -0.421875 C 6.660156 -0.710938 6.53125 -1.023438 6.53125 -1.359375 Z M 6.53125 -1.359375 "/></g></g></g><g fill="#ffffff" fill-opacity="1"><g transform="translate(99.258794, 75.296346)"><g><path d="M 4.453125 -30.359375 L 3.453125 -31.375 C 3.210938 -31.613281 3.113281 -31.898438 3.15625 -32.234375 C 3.207031 -32.566406 3.351562 -32.828125 3.59375 -33.015625 C 3.832031 -33.210938 4.34375 -33.679688 5.125 -34.421875 C 5.914062 -35.160156 6.671875 -36.148438 7.390625 -37.390625 C 8.109375 -38.640625 8.46875 -40.101562 8.46875 -41.78125 C 8.414062 -41.78125 8.1875 -41.71875 7.78125 -41.59375 C 7.375 -41.476562 6.882812 -41.421875 6.3125 -41.421875 C 4.976562 -41.421875 3.84375 -41.875 2.90625 -42.78125 C 1.96875 -43.6875 1.5 -44.8125 1.5 -46.15625 C 1.5 -47.5 1.976562 -48.632812 2.9375 -49.5625 C 3.894531 -50.5 5.117188 -50.96875 6.609375 -50.96875 C 7.460938 -50.96875 8.359375 -50.738281 9.296875 -50.28125 C 10.234375 -49.820312 11.007812 -49.03125 11.625 -47.90625 C 12.25 -46.789062 12.5625 -45.25 12.5625 -43.28125 C 12.5625 -40.9375 12.15625 -38.890625 11.34375 -37.140625 C 10.53125 -35.398438 9.609375 -33.96875 8.578125 -32.84375 C 7.546875 -31.71875 6.71875 -30.867188 6.09375 -30.296875 C 5.476562 -29.859375 4.929688 -29.878906 4.453125 -30.359375 Z M 4.453125 -30.359375 "/></g></g></g><g fill="#ffffff" fill-opacity="1"><g transform="translate(117.419558, 75.296346)"><g><path d="M 4.09375 -4.875 C 3.757812 -5.21875 3.53125 -5.519531 3.40625 -5.78125 C 3.289062 -6.039062 3.398438 -6.457031 3.734375 -7.03125 L 6.3125 -11.484375 C 6.601562 -12.015625 7 -12.289062 7.5 -12.3125 C 8 -12.332031 8.414062 -12.222656 8.75 -11.984375 C 8.84375 -11.941406 9.238281 -11.691406 9.9375 -11.234375 C 10.632812 -10.773438 11.507812 -10.257812 12.5625 -9.6875 C 13.613281 -9.113281 14.757812 -8.609375 16 -8.171875 C 17.25 -7.742188 18.445312 -7.53125 19.59375 -7.53125 C 21.457031 -7.53125 23.007812 -8.066406 24.25 -9.140625 C 25.5 -10.222656 26.125 -11.53125 26.125 -13.0625 C 26.125 -14.882812 25.359375 -16.476562 23.828125 -17.84375 C 22.296875 -19.207031 20.023438 -20.484375 17.015625 -21.671875 C 14.765625 -22.585938 12.609375 -23.710938 10.546875 -25.046875 C 8.492188 -26.390625 6.804688 -28.039062 5.484375 -30 C 4.171875 -31.96875 3.515625 -34.363281 3.515625 -37.1875 C 3.515625 -39.332031 4.0625 -41.457031 5.15625 -43.5625 C 6.257812 -45.675781 8.007812 -47.4375 10.40625 -48.84375 C 12.800781 -50.257812 15.890625 -50.96875 19.671875 -50.96875 C 22.109375 -50.96875 24.316406 -50.644531 26.296875 -50 C 28.285156 -49.351562 29.945312 -48.644531 31.28125 -47.875 C 32.625 -47.113281 33.535156 -46.539062 34.015625 -46.15625 C 34.398438 -45.96875 34.628906 -45.617188 34.703125 -45.109375 C 34.773438 -44.609375 34.691406 -44.164062 34.453125 -43.78125 L 31.71875 -39.6875 C 31.4375 -39.257812 31.054688 -38.9375 30.578125 -38.71875 C 30.097656 -38.507812 29.644531 -38.546875 29.21875 -38.828125 C 29.070312 -38.929688 28.660156 -39.1875 27.984375 -39.59375 C 27.316406 -40 26.492188 -40.453125 25.515625 -40.953125 C 24.535156 -41.453125 23.492188 -41.878906 22.390625 -42.234375 C 21.285156 -42.597656 20.234375 -42.78125 19.234375 -42.78125 C 17.171875 -42.78125 15.601562 -42.226562 14.53125 -41.125 C 13.457031 -40.03125 12.921875 -38.90625 12.921875 -37.75 C 12.921875 -36.082031 13.601562 -34.625 14.96875 -33.375 C 16.332031 -32.132812 18.472656 -30.914062 21.390625 -29.71875 C 23.109375 -29 24.851562 -28.179688 26.625 -27.265625 C 28.394531 -26.359375 30.019531 -25.269531 31.5 -24 C 32.988281 -22.738281 34.175781 -21.242188 35.0625 -19.515625 C 35.945312 -17.796875 36.390625 -15.789062 36.390625 -13.5 C 36.390625 -11.050781 35.71875 -8.738281 34.375 -6.5625 C 33.039062 -4.382812 31.140625 -2.625 28.671875 -1.28125 C 26.210938 0.0507812 23.28125 0.71875 19.875 0.71875 C 16.863281 0.71875 14.269531 0.347656 12.09375 -0.390625 C 9.914062 -1.128906 8.15625 -1.953125 6.8125 -2.859375 C 5.476562 -3.773438 4.570312 -4.445312 4.09375 -4.875 Z M 4.09375 -4.875 "/></g></g></g></g></g><g transform="matrix(1, 0, 0, 1, 18, 7)"><g clip-path="url(#be4216db4a)"><g fill="#ffffff" fill-opacity="1"><g transform="translate(1.091898, 75.644222)"><g><path d="M 6.53125 -1.359375 L 6.53125 -48.890625 C 6.53125 -49.265625 6.660156 -49.582031 6.921875 -49.84375 C 7.191406 -50.113281 7.515625 -50.25 7.890625 -50.25 L 14.5 -50.25 C 14.882812 -50.25 15.207031 -50.113281 15.46875 -49.84375 C 15.726562 -49.582031 15.859375 -49.265625 15.859375 -48.890625 L 15.859375 -8.609375 L 34.171875 -8.609375 C 34.546875 -8.609375 34.863281 -8.476562 35.125 -8.21875 C 35.394531 -7.957031 35.53125 -7.632812 35.53125 -7.25 L 35.53125 -1.359375 C 35.53125 -1.023438 35.394531 -0.710938 35.125 -0.421875 C 34.863281 -0.140625 34.546875 0 34.171875 0 L 7.890625 0 C 7.515625 0 7.191406 -0.140625 6.921875 -0.421875 C 6.660156 -0.710938 6.53125 -1.023438 6.53125 -1.359375 Z M 6.53125 -1.359375 "/></g></g></g></g></g><g fill="#ffffff" fill-opacity="1"><g transform="translate(22.310267, 126.408043)"><g><path d="M 2.578125 -0.546875 L 2.578125 -19.328125 C 2.578125 -19.472656 2.628906 -19.597656 2.734375 -19.703125 C 2.835938 -19.804688 2.96875 -19.859375 3.125 -19.859375 L 5.734375 -19.859375 C 5.878906 -19.859375 6.003906 -19.804688 6.109375 -19.703125 C 6.210938 -19.597656 6.265625 -19.472656 6.265625 -19.328125 L 6.265625 -3.40625 L 13.5 -3.40625 C 13.65625 -3.40625 13.785156 -3.351562 13.890625 -3.25 C 13.992188 -3.144531 14.046875 -3.015625 14.046875 -2.859375 L 14.046875 -0.546875 C 14.046875 -0.410156 13.992188 -0.285156 13.890625 -0.171875 C 13.785156 -0.0546875 13.65625 0 13.5 0 L 3.125 0 C 2.96875 0 2.835938 -0.0546875 2.734375 -0.171875 C 2.628906 -0.285156 2.578125 -0.410156 2.578125 -0.546875 Z M 2.578125 -0.546875 "/></g></g></g><g fill="#ffffff" fill-opacity="1"><g transform="translate(39.36226, 126.408043)"><g><path d="M 2.578125 -0.546875 L 2.578125 -19.328125 C 2.578125 -19.472656 2.628906 -19.597656 2.734375 -19.703125 C 2.835938 -19.804688 2.96875 -19.859375 3.125 -19.859375 L 14.671875 -19.859375 C 14.816406 -19.859375 14.941406 -19.804688 15.046875 -19.703125 C 15.148438 -19.597656 15.203125 -19.472656 15.203125 -19.328125 L 15.203125 -17 C 15.203125 -16.863281 15.148438 -16.738281 15.046875 -16.625 C 14.941406 -16.507812 14.816406 -16.453125 14.671875 -16.453125 L 6.265625 -16.453125 L 6.265625 -11.796875 L 13.28125 -11.796875 C 13.425781 -11.796875 13.550781 -11.742188 13.65625 -11.640625 C 13.757812 -11.535156 13.8125 -11.410156 13.8125 -11.265625 L 13.8125 -8.90625 C 13.8125 -8.757812 13.757812 -8.632812 13.65625 -8.53125 C 13.550781 -8.425781 13.425781 -8.375 13.28125 -8.375 L 6.265625 -8.375 L 6.265625 -3.40625 L 14.671875 -3.40625 C 14.816406 -3.40625 14.941406 -3.351562 15.046875 -3.25 C 15.148438 -3.144531 15.203125 -3.015625 15.203125 -2.859375 L 15.203125 -0.546875 C 15.203125 -0.410156 15.148438 -0.285156 15.046875 -0.171875 C 14.941406 -0.0546875 14.816406 0 14.671875 0 L 3.125 0 C 2.96875 0 2.835938 -0.0546875 2.734375 -0.171875 C 2.628906 -0.285156 2.578125 -0.410156 2.578125 -0.546875 Z M 2.578125 -0.546875 "/></g></g></g><g fill="#ffffff" fill-opacity="1"><g transform="translate(58.769058, 126.408043)"><g><path d="M 1.15625 -9.90625 C 1.15625 -11.320312 1.421875 -12.648438 1.953125 -13.890625 C 2.484375 -15.128906 3.210938 -16.21875 4.140625 -17.15625 C 5.066406 -18.09375 6.144531 -18.820312 7.375 -19.34375 C 8.601562 -19.875 9.925781 -20.140625 11.34375 -20.140625 C 12.632812 -20.140625 13.867188 -19.90625 15.046875 -19.4375 C 16.234375 -18.976562 17.3125 -18.332031 18.28125 -17.5 C 18.382812 -17.394531 18.441406 -17.265625 18.453125 -17.109375 C 18.460938 -16.960938 18.410156 -16.832031 18.296875 -16.71875 L 16.546875 -14.875 C 16.316406 -14.644531 16.070312 -14.644531 15.8125 -14.875 C 14.5625 -15.96875 13.128906 -16.515625 11.515625 -16.515625 C 10.347656 -16.515625 9.28125 -16.210938 8.3125 -15.609375 C 7.34375 -15.003906 6.578125 -14.203125 6.015625 -13.203125 C 5.453125 -12.210938 5.171875 -11.125 5.171875 -9.9375 C 5.171875 -8.757812 5.453125 -7.675781 6.015625 -6.6875 C 6.578125 -5.707031 7.34375 -4.921875 8.3125 -4.328125 C 9.28125 -3.734375 10.359375 -3.4375 11.546875 -3.4375 C 12.335938 -3.4375 13.023438 -3.523438 13.609375 -3.703125 C 14.203125 -3.878906 14.640625 -4.023438 14.921875 -4.140625 L 14.921875 -6.546875 L 12.65625 -6.546875 C 12.289062 -6.546875 12.109375 -6.71875 12.109375 -7.0625 L 12.109375 -9.3125 C 12.109375 -9.664062 12.289062 -9.84375 12.65625 -9.84375 L 18.109375 -9.84375 C 18.253906 -9.84375 18.375 -9.789062 18.46875 -9.6875 C 18.5625 -9.582031 18.609375 -9.457031 18.609375 -9.3125 L 18.609375 -2.046875 C 18.609375 -1.929688 18.582031 -1.832031 18.53125 -1.75 C 18.488281 -1.675781 18.441406 -1.625 18.390625 -1.59375 C 18.390625 -1.59375 18.21875 -1.492188 17.875 -1.296875 C 17.53125 -1.109375 17.039062 -0.894531 16.40625 -0.65625 C 15.78125 -0.425781 15.035156 -0.21875 14.171875 -0.03125 C 13.304688 0.15625 12.363281 0.25 11.34375 0.25 C 9.925781 0.25 8.601562 -0.0078125 7.375 -0.53125 C 6.144531 -1.050781 5.066406 -1.773438 4.140625 -2.703125 C 3.210938 -3.628906 2.484375 -4.707031 1.953125 -5.9375 C 1.421875 -7.164062 1.15625 -8.488281 1.15625 -9.90625 Z M 1.15625 -9.90625 "/></g></g></g><g fill="#ffffff" fill-opacity="1"><g transform="translate(81.693885, 126.408043)"><g><path d="M 0.546875 0 C 0.335938 0 0.1875 -0.0703125 0.09375 -0.21875 C 0 -0.375 -0.0078125 -0.546875 0.0625 -0.734375 L 8.890625 -19.828125 C 9.003906 -20.035156 9.164062 -20.140625 9.375 -20.140625 L 9.65625 -20.140625 C 9.800781 -20.140625 9.90625 -20.109375 9.96875 -20.046875 C 10.039062 -19.992188 10.097656 -19.921875 10.140625 -19.828125 L 18.875 -0.734375 C 18.96875 -0.546875 18.960938 -0.375 18.859375 -0.21875 C 18.753906 -0.0703125 18.597656 0 18.390625 0 L 15.921875 0 C 15.566406 0 15.289062 -0.1875 15.09375 -0.5625 L 13.703125 -3.625 L 5.234375 -3.625 L 3.84375 -0.5625 C 3.78125 -0.4375 3.679688 -0.3125 3.546875 -0.1875 C 3.421875 -0.0625 3.242188 0 3.015625 0 Z M 6.609375 -6.78125 L 12.328125 -6.78125 L 9.484375 -13.03125 L 9.390625 -13.03125 Z M 6.609375 -6.78125 "/></g></g></g><g fill="#ffffff" fill-opacity="1"><g transform="translate(103.228528, 126.408043)"><g><path d="M 1.140625 -9.90625 C 1.140625 -11.320312 1.398438 -12.648438 1.921875 -13.890625 C 2.453125 -15.128906 3.1875 -16.21875 4.125 -17.15625 C 5.0625 -18.09375 6.148438 -18.820312 7.390625 -19.34375 C 8.628906 -19.875 9.957031 -20.140625 11.375 -20.140625 C 12.8125 -20.140625 14.070312 -19.914062 15.15625 -19.46875 C 16.25 -19.03125 17.28125 -18.375 18.25 -17.5 C 18.375 -17.394531 18.4375 -17.265625 18.4375 -17.109375 C 18.4375 -16.960938 18.382812 -16.832031 18.28125 -16.71875 L 16.546875 -14.921875 C 16.316406 -14.679688 16.078125 -14.679688 15.828125 -14.921875 C 15.242188 -15.453125 14.566406 -15.863281 13.796875 -16.15625 C 13.035156 -16.445312 12.257812 -16.59375 11.46875 -16.59375 C 10.25 -16.59375 9.160156 -16.289062 8.203125 -15.6875 C 7.253906 -15.082031 6.503906 -14.28125 5.953125 -13.28125 C 5.410156 -12.28125 5.140625 -11.179688 5.140625 -9.984375 C 5.140625 -8.816406 5.414062 -7.726562 5.96875 -6.71875 C 6.53125 -5.71875 7.285156 -4.921875 8.234375 -4.328125 C 9.191406 -3.734375 10.273438 -3.4375 11.484375 -3.4375 C 12.335938 -3.4375 13.128906 -3.585938 13.859375 -3.890625 C 14.585938 -4.191406 15.242188 -4.578125 15.828125 -5.046875 C 15.941406 -5.140625 16.066406 -5.1875 16.203125 -5.1875 C 16.347656 -5.1875 16.460938 -5.140625 16.546875 -5.046875 L 18.296875 -3.234375 C 18.410156 -3.140625 18.457031 -3.007812 18.4375 -2.84375 C 18.425781 -2.6875 18.375 -2.5625 18.28125 -2.46875 C 17.3125 -1.539062 16.234375 -0.847656 15.046875 -0.390625 C 13.867188 0.0546875 12.644531 0.28125 11.375 0.28125 C 9.957031 0.28125 8.628906 0.0195312 7.390625 -0.5 C 6.148438 -1.019531 5.0625 -1.75 4.125 -2.6875 C 3.1875 -3.625 2.453125 -4.707031 1.921875 -5.9375 C 1.398438 -7.164062 1.140625 -8.488281 1.140625 -9.90625 Z M 1.140625 -9.90625 "/></g></g></g><g fill="#ffffff" fill-opacity="1"><g transform="translate(125.358963, 126.408043)"><g><path d="M 6.453125 -0.546875 L 6.453125 -9.5625 L -0.015625 -19.046875 C -0.128906 -19.234375 -0.140625 -19.414062 -0.046875 -19.59375 C 0.046875 -19.769531 0.207031 -19.859375 0.4375 -19.859375 L 3.328125 -19.859375 C 3.441406 -19.859375 3.535156 -19.828125 3.609375 -19.765625 C 3.679688 -19.710938 3.738281 -19.660156 3.78125 -19.609375 L 8.3125 -13.078125 L 12.859375 -19.609375 C 12.898438 -19.660156 12.957031 -19.710938 13.03125 -19.765625 C 13.101562 -19.828125 13.195312 -19.859375 13.3125 -19.859375 L 16.234375 -19.859375 C 16.460938 -19.859375 16.625 -19.769531 16.71875 -19.59375 C 16.8125 -19.414062 16.800781 -19.234375 16.6875 -19.046875 L 10.140625 -9.59375 L 10.140625 -0.546875 C 10.140625 -0.410156 10.085938 -0.285156 9.984375 -0.171875 C 9.878906 -0.0546875 9.75 0 9.59375 0 L 6.984375 0 C 6.835938 0 6.710938 -0.0546875 6.609375 -0.171875 C 6.503906 -0.285156 6.453125 -0.410156 6.453125 -0.546875 Z M 6.453125 -0.546875 "/></g></g></g><g fill="#ffffff" fill-opacity="1"><g transform="translate(144.623912, 126.408043)"><g/></g></g><g fill="#ffffff" fill-opacity="1"><g transform="translate(153.618498, 126.408043)"><g><path d="M 2.578125 -0.546875 L 2.578125 -19.328125 C 2.578125 -19.472656 2.628906 -19.597656 2.734375 -19.703125 C 2.835938 -19.804688 2.96875 -19.859375 3.125 -19.859375 L 11.234375 -19.859375 C 12.367188 -19.859375 13.40625 -19.582031 14.34375 -19.03125 C 15.28125 -18.488281 16.023438 -17.757812 16.578125 -16.84375 C 17.140625 -15.925781 17.421875 -14.898438 17.421875 -13.765625 C 17.421875 -12.453125 17.023438 -11.289062 16.234375 -10.28125 C 15.453125 -9.269531 14.445312 -8.519531 13.21875 -8.03125 L 17.109375 -0.828125 C 17.203125 -0.640625 17.207031 -0.453125 17.125 -0.265625 C 17.039062 -0.0859375 16.875 0 16.625 0 L 13.640625 0 C 13.515625 0 13.414062 -0.0234375 13.34375 -0.078125 C 13.28125 -0.140625 13.226562 -0.195312 13.1875 -0.25 L 9.421875 -7.78125 L 6.265625 -7.78125 L 6.265625 -0.546875 C 6.265625 -0.410156 6.210938 -0.285156 6.109375 -0.171875 C 6.003906 -0.0546875 5.878906 0 5.734375 0 L 3.125 0 C 2.96875 0 2.835938 -0.0546875 2.734375 -0.171875 C 2.628906 -0.285156 2.578125 -0.410156 2.578125 -0.546875 Z M 6.296875 -10.8125 L 10.921875 -10.8125 C 11.679688 -10.8125 12.335938 -11.09375 12.890625 -11.65625 C 13.453125 -12.226562 13.734375 -12.910156 13.734375 -13.703125 C 13.734375 -14.460938 13.453125 -15.109375 12.890625 -15.640625 C 12.335938 -16.179688 11.679688 -16.453125 10.921875 -16.453125 L 6.296875 -16.453125 Z M 6.296875 -10.8125 "/></g></g></g><g fill="#ffffff" fill-opacity="1"><g transform="translate(175.238252, 126.408043)"><g><path d="M 2.578125 -0.546875 L 2.578125 -19.328125 C 2.578125 -19.472656 2.628906 -19.597656 2.734375 -19.703125 C 2.835938 -19.804688 2.96875 -19.859375 3.125 -19.859375 L 14.671875 -19.859375 C 14.816406 -19.859375 14.941406 -19.804688 15.046875 -19.703125 C 15.148438 -19.597656 15.203125 -19.472656 15.203125 -19.328125 L 15.203125 -17 C 15.203125 -16.863281 15.148438 -16.738281 15.046875 -16.625 C 14.941406 -16.507812 14.816406 -16.453125 14.671875 -16.453125 L 6.265625 -16.453125 L 6.265625 -11.796875 L 13.28125 -11.796875 C 13.425781 -11.796875 13.550781 -11.742188 13.65625 -11.640625 C 13.757812 -11.535156 13.8125 -11.410156 13.8125 -11.265625 L 13.8125 -8.90625 C 13.8125 -8.757812 13.757812 -8.632812 13.65625 -8.53125 C 13.550781 -8.425781 13.425781 -8.375 13.28125 -8.375 L 6.265625 -8.375 L 6.265625 -3.40625 L 14.671875 -3.40625 C 14.816406 -3.40625 14.941406 -3.351562 15.046875 -3.25 C 15.148438 -3.144531 15.203125 -3.015625 15.203125 -2.859375 L 15.203125 -0.546875 C 15.203125 -0.410156 15.148438 -0.285156 15.046875 -0.171875 C 14.941406 -0.0546875 14.816406 0 14.671875 0 L 3.125 0 C 2.96875 0 2.835938 -0.0546875 2.734375 -0.171875 C 2.628906 -0.285156 2.578125 -0.410156 2.578125 -0.546875 Z M 2.578125 -0.546875 "/></g></g></g><g fill="#ffffff" fill-opacity="1"><g transform="translate(194.64505, 126.408043)"><g><path d="M 1.625 -1.921875 C 1.488281 -2.054688 1.394531 -2.175781 1.34375 -2.28125 C 1.300781 -2.382812 1.347656 -2.550781 1.484375 -2.78125 L 2.5 -4.546875 C 2.613281 -4.753906 2.769531 -4.859375 2.96875 -4.859375 C 3.164062 -4.867188 3.332031 -4.828125 3.46875 -4.734375 C 3.507812 -4.710938 3.664062 -4.613281 3.9375 -4.4375 C 4.207031 -4.257812 4.550781 -4.054688 4.96875 -3.828125 C 5.382812 -3.597656 5.835938 -3.398438 6.328125 -3.234375 C 6.828125 -3.066406 7.300781 -2.984375 7.75 -2.984375 C 8.488281 -2.984375 9.101562 -3.191406 9.59375 -3.609375 C 10.082031 -4.035156 10.328125 -4.554688 10.328125 -5.171875 C 10.328125 -5.890625 10.023438 -6.515625 9.421875 -7.046875 C 8.816406 -7.585938 7.921875 -8.09375 6.734375 -8.5625 C 5.835938 -8.925781 4.984375 -9.375 4.171875 -9.90625 C 3.359375 -10.4375 2.691406 -11.085938 2.171875 -11.859375 C 1.648438 -12.640625 1.390625 -13.585938 1.390625 -14.703125 C 1.390625 -15.546875 1.609375 -16.382812 2.046875 -17.21875 C 2.484375 -18.050781 3.171875 -18.742188 4.109375 -19.296875 C 5.054688 -19.859375 6.28125 -20.140625 7.78125 -20.140625 C 8.75 -20.140625 9.625 -20.007812 10.40625 -19.75 C 11.1875 -19.5 11.84375 -19.222656 12.375 -18.921875 C 12.90625 -18.617188 13.265625 -18.394531 13.453125 -18.25 C 13.609375 -18.164062 13.695312 -18.023438 13.71875 -17.828125 C 13.75 -17.628906 13.71875 -17.457031 13.625 -17.3125 L 12.546875 -15.6875 C 12.429688 -15.519531 12.28125 -15.394531 12.09375 -15.3125 C 11.90625 -15.226562 11.722656 -15.238281 11.546875 -15.34375 C 11.492188 -15.382812 11.332031 -15.484375 11.0625 -15.640625 C 10.800781 -15.804688 10.476562 -15.988281 10.09375 -16.1875 C 9.707031 -16.382812 9.296875 -16.550781 8.859375 -16.6875 C 8.421875 -16.832031 8.003906 -16.90625 7.609375 -16.90625 C 6.796875 -16.90625 6.175781 -16.6875 5.75 -16.25 C 5.320312 -15.820312 5.109375 -15.378906 5.109375 -14.921875 C 5.109375 -14.265625 5.378906 -13.6875 5.921875 -13.1875 C 6.460938 -12.695312 7.3125 -12.21875 8.46875 -11.75 C 9.144531 -11.46875 9.832031 -11.144531 10.53125 -10.78125 C 11.226562 -10.425781 11.867188 -9.992188 12.453125 -9.484375 C 13.046875 -8.984375 13.515625 -8.394531 13.859375 -7.71875 C 14.210938 -7.039062 14.390625 -6.242188 14.390625 -5.328125 C 14.390625 -4.367188 14.125 -3.457031 13.59375 -2.59375 C 13.0625 -1.738281 12.304688 -1.046875 11.328125 -0.515625 C 10.359375 0.015625 9.203125 0.28125 7.859375 0.28125 C 6.671875 0.28125 5.644531 0.132812 4.78125 -0.15625 C 3.925781 -0.445312 3.234375 -0.769531 2.703125 -1.125 C 2.171875 -1.488281 1.8125 -1.753906 1.625 -1.921875 Z M 1.625 -1.921875 "/></g></g></g><g fill="#ffffff" fill-opacity="1"><g transform="translate(212.746775, 126.408043)"><g><path d="M 1.140625 -9.90625 C 1.140625 -11.320312 1.398438 -12.648438 1.921875 -13.890625 C 2.453125 -15.128906 3.1875 -16.21875 4.125 -17.15625 C 5.0625 -18.09375 6.148438 -18.820312 7.390625 -19.34375 C 8.628906 -19.875 9.957031 -20.140625 11.375 -20.140625 C 12.8125 -20.140625 14.070312 -19.914062 15.15625 -19.46875 C 16.25 -19.03125 17.28125 -18.375 18.25 -17.5 C 18.375 -17.394531 18.4375 -17.265625 18.4375 -17.109375 C 18.4375 -16.960938 18.382812 -16.832031 18.28125 -16.71875 L 16.546875 -14.921875 C 16.316406 -14.679688 16.078125 -14.679688 15.828125 -14.921875 C 15.242188 -15.453125 14.566406 -15.863281 13.796875 -16.15625 C 13.035156 -16.445312 12.257812 -16.59375 11.46875 -16.59375 C 10.25 -16.59375 9.160156 -16.289062 8.203125 -15.6875 C 7.253906 -15.082031 6.503906 -14.28125 5.953125 -13.28125 C 5.410156 -12.28125 5.140625 -11.179688 5.140625 -9.984375 C 5.140625 -8.816406 5.414062 -7.726562 5.96875 -6.71875 C 6.53125 -5.71875 7.285156 -4.921875 8.234375 -4.328125 C 9.191406 -3.734375 10.273438 -3.4375 11.484375 -3.4375 C 12.335938 -3.4375 13.128906 -3.585938 13.859375 -3.890625 C 14.585938 -4.191406 15.242188 -4.578125 15.828125 -5.046875 C 15.941406 -5.140625 16.066406 -5.1875 16.203125 -5.1875 C 16.347656 -5.1875 16.460938 -5.140625 16.546875 -5.046875 L 18.296875 -3.234375 C 18.410156 -3.140625 18.457031 -3.007812 18.4375 -2.84375 C 18.425781 -2.6875 18.375 -2.5625 18.28125 -2.46875 C 17.3125 -1.539062 16.234375 -0.847656 15.046875 -0.390625 C 13.867188 0.0546875 12.644531 0.28125 11.375 0.28125 C 9.957031 0.28125 8.628906 0.0195312 7.390625 -0.5 C 6.148438 -1.019531 5.0625 -1.75 4.125 -2.6875 C 3.1875 -3.625 2.453125 -4.707031 1.921875 -5.9375 C 1.398438 -7.164062 1.140625 -8.488281 1.140625 -9.90625 Z M 1.140625 -9.90625 "/></g></g></g><g fill="#ffffff" fill-opacity="1"><g transform="translate(234.87721, 126.408043)"><g><path d="M 2.296875 -7.515625 L 2.296875 -19.328125 C 2.296875 -19.472656 2.351562 -19.597656 2.46875 -19.703125 C 2.582031 -19.804688 2.707031 -19.859375 2.84375 -19.859375 L 5.53125 -19.859375 C 5.6875 -19.859375 5.816406 -19.804688 5.921875 -19.703125 C 6.023438 -19.597656 6.078125 -19.472656 6.078125 -19.328125 L 6.078125 -7.71875 C 6.078125 -6.925781 6.242188 -6.203125 6.578125 -5.546875 C 6.921875 -4.890625 7.40625 -4.367188 8.03125 -3.984375 C 8.65625 -3.597656 9.375 -3.40625 10.1875 -3.40625 C 11.019531 -3.40625 11.742188 -3.59375 12.359375 -3.96875 C 12.972656 -4.351562 13.453125 -4.867188 13.796875 -5.515625 C 14.148438 -6.171875 14.328125 -6.894531 14.328125 -7.6875 L 14.328125 -19.328125 C 14.328125 -19.472656 14.378906 -19.597656 14.484375 -19.703125 C 14.585938 -19.804688 14.71875 -19.859375 14.875 -19.859375 L 17.5625 -19.859375 C 17.71875 -19.859375 17.847656 -19.804688 17.953125 -19.703125 C 18.054688 -19.597656 18.109375 -19.472656 18.109375 -19.328125 L 18.109375 -7.515625 C 18.109375 -6.078125 17.753906 -4.765625 17.046875 -3.578125 C 16.347656 -2.398438 15.398438 -1.460938 14.203125 -0.765625 C 13.015625 -0.0664062 11.675781 0.28125 10.1875 0.28125 C 8.707031 0.28125 7.367188 -0.0664062 6.171875 -0.765625 C 4.984375 -1.460938 4.039062 -2.398438 3.34375 -3.578125 C 2.644531 -4.765625 2.296875 -6.078125 2.296875 -7.515625 Z M 2.296875 -7.515625 "/></g></g></g><g fill="#ffffff" fill-opacity="1"><g transform="translate(258.000637, 126.408043)"><g><path d="M 2.578125 -0.546875 L 2.578125 -19.328125 C 2.578125 -19.472656 2.628906 -19.597656 2.734375 -19.703125 C 2.835938 -19.804688 2.96875 -19.859375 3.125 -19.859375 L 14.671875 -19.859375 C 14.816406 -19.859375 14.941406 -19.804688 15.046875 -19.703125 C 15.148438 -19.597656 15.203125 -19.472656 15.203125 -19.328125 L 15.203125 -17 C 15.203125 -16.863281 15.148438 -16.738281 15.046875 -16.625 C 14.941406 -16.507812 14.816406 -16.453125 14.671875 -16.453125 L 6.265625 -16.453125 L 6.265625 -11.796875 L 13.28125 -11.796875 C 13.425781 -11.796875 13.550781 -11.742188 13.65625 -11.640625 C 13.757812 -11.535156 13.8125 -11.410156 13.8125 -11.265625 L 13.8125 -8.90625 C 13.8125 -8.757812 13.757812 -8.632812 13.65625 -8.53125 C 13.550781 -8.425781 13.425781 -8.375 13.28125 -8.375 L 6.265625 -8.375 L 6.265625 -3.40625 L 14.671875 -3.40625 C 14.816406 -3.40625 14.941406 -3.351562 15.046875 -3.25 C 15.148438 -3.144531 15.203125 -3.015625 15.203125 -2.859375 L 15.203125 -0.546875 C 15.203125 -0.410156 15.148438 -0.285156 15.046875 -0.171875 C 14.941406 -0.0546875 14.816406 0 14.671875 0 L 3.125 0 C 2.96875 0 2.835938 -0.0546875 2.734375 -0.171875 C 2.628906 -0.285156 2.578125 -0.410156 2.578125 -0.546875 Z M 2.578125 -0.546875 "/></g></g></g><g fill="#ffffff" fill-opacity="1"><g transform="translate(277.415725, 126.408043)"><g/></g></g></svg>