<svg xmlns="http://www.w3.org/2000/svg" xmlns:xlink="http://www.w3.org/1999/xlink" width="500" zoomAndPan="magnify" viewBox="0 0 375 374.999991" height="500" preserveAspectRatio="xMidYMid meet" version="1.0"><defs><clipPath id="58a5b87691"><path d="M 73 159 L 300 159 L 300 343.453125 L 73 343.453125 Z M 73 159 " clip-rule="nonzero"/></clipPath><clipPath id="31e145a90e"><path d="M 101 31.453125 L 180 31.453125 L 180 134 L 101 134 Z M 101 31.453125 " clip-rule="nonzero"/></clipPath><clipPath id="86e5899110"><path d="M 193 31.453125 L 272 31.453125 L 272 134 L 193 134 Z M 193 31.453125 " clip-rule="nonzero"/></clipPath></defs><g clip-path="url(#58a5b87691)"><path fill="#627abd" d="M 250.355469 217.324219 C 228.949219 192.933594 219.863281 159.824219 186.71875 159.824219 C 153.574219 159.824219 144.484375 192.933594 123.082031 217.324219 C 103.933594 239.140625 73.765625 249.296875 73.765625 279.582031 C 73.765625 314.90625 102.402344 343.542969 137.722656 343.542969 C 157.398438 343.542969 168.472656 320.6875 186.71875 320.6875 C 204.957031 320.6875 216.042969 343.542969 235.710938 343.542969 C 271.035156 343.542969 299.671875 314.90625 299.671875 279.582031 C 299.671875 249.296875 269.5 239.140625 250.355469 217.324219 " fill-opacity="1" fill-rule="nonzero"/></g><g clip-path="url(#31e145a90e)"><path fill="#627abd" d="M 179.914062 82.257812 C 179.914062 110.3125 162.449219 133.0625 140.902344 133.0625 C 119.355469 133.0625 101.886719 110.3125 101.886719 82.257812 C 101.886719 54.195312 119.355469 31.449219 140.902344 31.449219 C 162.449219 31.449219 179.914062 54.195312 179.914062 82.257812 " fill-opacity="1" fill-rule="nonzero"/></g><g clip-path="url(#86e5899110)"><path fill="#627abd" d="M 271.542969 82.257812 C 271.542969 110.3125 254.078125 133.0625 232.53125 133.0625 C 210.984375 133.0625 193.523438 110.3125 193.523438 82.257812 C 193.523438 54.195312 210.984375 31.449219 232.53125 31.449219 C 254.078125 31.449219 271.542969 54.195312 271.542969 82.257812 " fill-opacity="1" fill-rule="nonzero"/></g><path fill="#627abd" d="M 106.445312 155.257812 C 111.738281 182.8125 98.871094 208.445312 77.710938 212.507812 C 56.550781 216.570312 35.109375 197.523438 29.820312 169.964844 C 24.53125 142.414062 37.394531 116.78125 58.554688 112.71875 C 79.710938 108.65625 101.15625 127.703125 106.445312 155.257812 " fill-opacity="1" fill-rule="nonzero"/><path fill="#627abd" d="M 340.9375 176.703125 C 331.40625 203.09375 307.25 218.558594 286.988281 211.234375 C 266.71875 203.917969 258.023438 176.589844 267.554688 150.199219 C 277.085938 123.8125 301.238281 108.351562 321.507812 115.667969 C 341.769531 122.988281 350.46875 150.316406 340.9375 176.703125 " fill-opacity="1" fill-rule="nonzero"/></svg>